<?xml version="1.0" encoding="UTF-8"?>
<svg version="1.1" xmlns="http://www.w3.org/2000/svg" width="500" height="500">
<path d="M0 0 C165 0 330 0 500 0 C500 165 500 330 500 500 C335 500 170 500 0 500 C0 335 0 170 0 0 Z " fill="#FEFEFE" transform="translate(0,0)"/>
<path d="M0 0 C0.81416885 -0.00622879 1.62833771 -0.01245758 2.46717834 -0.01887512 C3.77977882 -0.0050605 3.77977882 -0.0050605 5.11889648 0.0090332 C6.47047096 0.00828545 6.47047096 0.00828545 7.84934998 0.00752258 C9.75326748 0.00986247 11.65718812 0.019586 13.56103516 0.03613281 C16.48229479 0.05975223 19.40264361 0.05668989 22.32397461 0.05004883 C24.17228736 0.05562463 26.02059626 0.06273389 27.86889648 0.0715332 C28.7459877 0.0706218 29.62307892 0.06971039 30.52674866 0.06877136 C36.69646079 0.14128501 36.69646079 0.14128501 38.92749023 2.37231445 C41.49810334 3.01999238 41.49810334 3.01999238 43.92749023 3.37231445 C44.25749023 2.38231445 44.58749023 1.39231445 44.92749023 0.37231445 C54.00252748 0.32600387 63.07752413 0.29045178 72.15265369 0.26869011 C76.36645998 0.25824638 80.58018551 0.24407646 84.79394531 0.22143555 C88.85934431 0.19972813 92.92466555 0.18775027 96.99011803 0.18255997 C98.54228629 0.17886043 100.09445024 0.17163627 101.64658546 0.16085434 C103.8181953 0.14636719 105.98948254 0.14433532 108.16113281 0.14526367 C109.39801346 0.14082245 110.6348941 0.13638123 111.90925598 0.13180542 C114.92749023 0.37231445 114.92749023 0.37231445 117.92749023 2.37231445 C118.33592947 5.08435097 118.0608589 7.61602866 117.92749023 10.37231445 C119.84561523 10.31043945 119.84561523 10.31043945 121.80249023 10.24731445 C123.98217773 10.17700195 123.98217773 10.17700195 125.92749023 10.37231445 C127.92749023 12.37231445 127.92749023 12.37231445 128.12280273 14.53637695 C128.09959961 15.34848633 128.07639648 16.1605957 128.05249023 16.99731445 C128.03444336 17.81458008 128.01639648 18.6318457 127.99780273 19.47387695 C127.97459961 20.10036133 127.95139648 20.7268457 127.92749023 21.37231445 C128.56557617 21.36071289 129.20366211 21.34911133 129.86108398 21.3371582 C130.68737305 21.32813477 131.51366211 21.31911133 132.36499023 21.30981445 C133.18870117 21.29821289 134.01241211 21.28661133 134.86108398 21.2746582 C136.92749023 21.37231445 136.92749023 21.37231445 137.92749023 22.37231445 C138.03243605 24.07948683 138.06714199 25.79101005 138.07466125 27.50138855 C138.08539421 29.16906784 138.08539421 29.16906784 138.09634399 30.87043762 C138.0990329 32.1010643 138.1017218 33.33169098 138.10449219 34.59960938 C138.11106339 35.88734253 138.11763458 37.17507568 138.12440491 38.50183105 C138.14184225 42.04544387 138.15237487 45.58904316 138.16061044 49.13268828 C138.16575661 51.34638375 138.17183262 53.56007498 138.17812157 55.77376747 C138.19718442 62.69892253 138.21141114 69.62406688 138.21973354 76.54924315 C138.22949995 84.54441985 138.25579901 92.53931925 138.29623443 100.53439826 C138.32640532 106.71195815 138.34120347 112.88943864 138.34451455 119.06707078 C138.34686469 122.75731936 138.35581926 126.44727208 138.38097572 130.13744164 C138.40860921 134.25782036 138.40442237 138.37758136 138.39746094 142.49804688 C138.41667603 144.32880516 138.41667603 144.32880516 138.4362793 146.19654846 C138.37132175 156.72890428 138.37132175 156.72890428 133.92749023 161.37231445 C130.85935381 163.55346998 128.24148745 163.62081357 124.53222656 163.61523438 C123.45463577 163.618311 122.37704498 163.62138763 121.26679993 163.6245575 C120.10939804 163.61737198 118.95199615 163.61018646 117.75952148 163.6027832 C115.97368904 163.60209587 115.97368904 163.60209587 114.15177917 163.60139465 C111.6376343 163.59837496 109.12349125 163.59049714 106.609375 163.578125 C102.74464353 163.55983647 98.88015114 163.55761556 95.01538086 163.55786133 C92.57592565 163.55294737 90.13647207 163.54711958 87.69702148 163.5402832 C86.53354691 163.53917038 85.37007233 163.53805756 84.17134094 163.53691101 C83.10320663 163.53053116 82.03507233 163.52415131 80.93457031 163.51757812 C79.51704216 163.51186043 79.51704216 163.51186043 78.07087708 163.50602722 C75.92749023 163.37231445 75.92749023 163.37231445 74.92749023 162.37231445 C71.92749023 162.20564779 71.92749023 162.20564779 68.92749023 162.37231445 C68.59749023 162.70231445 68.26749023 163.03231445 67.92749023 163.37231445 C65.87378244 163.49279125 63.81590331 163.54257279 61.75878906 163.56518555 C60.79279282 163.57745178 60.79279282 163.57745178 59.80728149 163.58996582 C57.66637103 163.61486734 55.5255273 163.63135171 53.38452148 163.64575195 C52.28835793 163.65373747 52.28835793 163.65373747 51.17004967 163.66188431 C47.29876122 163.68864227 43.42750524 163.7080047 39.55615234 163.72241211 C35.56225763 163.73902632 31.56919357 163.78376781 27.57561207 163.83478355 C24.50173534 163.86850078 21.42805413 163.87999459 18.35400963 163.88563919 C16.88241957 163.89234427 15.41084204 163.9075473 13.93943214 163.93153 C0.97673756 164.13067717 0.97673756 164.13067717 -2.89794922 161.15209961 C-6.49581307 156.55287677 -7.3223733 152.88886338 -7.33320618 147.09664917 C-7.34029099 145.83198822 -7.34737579 144.56732727 -7.35467529 143.26434326 C-7.35238171 141.87048304 -7.34987205 140.47662316 -7.34716797 139.08276367 C-7.35151696 137.60907737 -7.35670074 136.13539333 -7.36265564 134.66171265 C-7.37603297 130.66604142 -7.376626 126.67046485 -7.37409234 122.6747756 C-7.37302233 119.33948923 -7.37790648 116.00422198 -7.38269776 112.66893971 C-7.39378736 104.80361124 -7.39423264 96.93833055 -7.38818359 89.07299805 C-7.38213563 80.95392977 -7.39447685 72.83503444 -7.41575366 64.71599567 C-7.43334871 57.74604304 -7.43937457 50.77614557 -7.43611592 43.80617154 C-7.43430045 39.6427554 -7.43696594 35.4794628 -7.45083046 31.31606674 C-7.46337111 27.40408183 -7.46150074 23.49236769 -7.44841957 19.58038712 C-7.44604644 18.14324097 -7.44881474 16.70607597 -7.45704269 15.26895142 C-7.46744809 13.31066306 -7.45764165 11.35229806 -7.44673157 9.39401245 C-7.44689931 8.29712034 -7.44706705 7.20022823 -7.44723988 6.07009697 C-7.07250977 3.37231445 -7.07250977 3.37231445 -5.66810989 1.51934719 C-3.6479906 0.06713938 -2.47561636 -0.00217729 0 0 Z " fill="#E8EEEF" transform="translate(39.072509765625,87.627685546875)"/>
<path d="M0 0 C1.02416016 -0.01611328 2.04832031 -0.03222656 3.10351562 -0.04882812 C13.24967121 -0.05531129 21.53644273 2.12204192 28.9375 9.3125 C35.15492197 16.72934589 38.50788126 23.67845692 38.2421875 33.46484375 C36.18501906 52.69145644 24.88374219 70.11631724 12.05078125 83.94140625 C10.20285702 86.0147704 8.63200062 88.09085644 7.0625 90.375 C3.92369503 94.68112913 0.00981807 97.76207296 -4.1640625 101.03515625 C-6.00435153 102.48109763 -7.81615819 103.96465933 -9.5859375 105.49609375 C-17.20895223 112.07534185 -25.58330366 117.12493986 -34.24414062 122.21850586 C-38.19155784 124.59342215 -39.57565755 125.96634514 -41.0625 130.3125 C-42.3 130.1475 -43.5375 129.9825 -44.8125 129.8125 C-48.64507918 129.36516426 -52.33227753 129.33068023 -56.1875 129.4375 C-62.59237899 129.48639221 -66.46238197 128.44593018 -71.5 124.3125 C-73.0625 122.3125 -73.0625 122.3125 -73.0625 119.3125 C-70.10446565 119.11828562 -67.14629837 118.93183814 -64.1875 118.75 C-62.92486328 118.66588867 -62.92486328 118.66588867 -61.63671875 118.58007812 C-60.83105469 118.53173828 -60.02539062 118.48339844 -59.1953125 118.43359375 C-58.07987061 118.36289673 -58.07987061 118.36289673 -56.94189453 118.29077148 C-55.0625 118.3125 -55.0625 118.3125 -53.0625 119.3125 C-52.97613281 118.56613281 -52.88976562 117.81976563 -52.80078125 117.05078125 C-50.21328563 96.23212382 -46.63253744 75.5463184 -41.0625 55.3125 C-40.58876953 53.53359375 -40.58876953 53.53359375 -40.10546875 51.71875 C-38.10947889 44.44825075 -35.79406082 37.28503954 -33.4375 30.125 C-33.13602051 29.20275635 -32.83454102 28.2805127 -32.52392578 27.33032227 C-32.09055908 26.03179321 -32.09055908 26.03179321 -31.6484375 24.70703125 C-31.3911084 23.93206299 -31.1337793 23.15709473 -30.86865234 22.35864258 C-30.0625 20.3125 -30.0625 20.3125 -28.0625 17.3125 C-38.88038983 23.05025615 -48.47092584 29.74098806 -57.73046875 37.75634766 C-61.86326064 41.3125 -61.86326064 41.3125 -64.0625 41.3125 C-64.0625 41.9725 -64.0625 42.6325 -64.0625 43.3125 C-67.05078314 42.98944236 -68.67571245 42.66060879 -70.9375 40.625 C-72.51102988 37.3905219 -72.10656316 35.72310633 -71.0625 32.3125 C-68.24321273 28.27743617 -64.93292959 25.42755979 -60.9375 22.625 C-60.33494385 22.20001221 -59.7323877 21.77502441 -59.11157227 21.3371582 C-40.93719788 8.80588449 -22.39271904 -0.07072874 0 0 Z " fill="#8460FF" transform="translate(160.0625,268.6875)"/>
<path d="M0 0 C3.76355394 0.82614599 5.2721375 2.53113787 7.5625 5.5625 C7.27277754 9.5284785 5.90713852 11.78794081 3.5 14.875 C-3.28117969 24.23749295 -8.18868401 34.77470112 -11.56640625 45.80859375 C-12.70293259 49.40164788 -14.1331955 52.84200613 -15.60546875 56.30859375 C-16.49120489 58.70798226 -16.99816613 61.0463151 -17.4375 63.5625 C-18.0975 63.5625 -18.7575 63.5625 -19.4375 63.5625 C-19.9325 69.5025 -19.9325 69.5025 -20.4375 75.5625 C-21.0975 75.5625 -21.7575 75.5625 -22.4375 75.5625 C-22.56898438 76.84640625 -22.70046875 78.1303125 -22.8359375 79.453125 C-23.20364574 82.77679173 -23.6619917 86.06357504 -24.2265625 89.359375 C-25.8776145 99.05870096 -26.92350989 107.75125398 -25.4375 117.5625 C-13.49659918 110.9048035 -3.88022518 99.10391309 5.75 89.5 C6.31682495 88.93585388 6.8836499 88.37170776 7.46765137 87.79046631 C9.09991317 86.16404877 10.7283456 84.53390052 12.35546875 82.90234375 C12.85078598 82.4090004 13.34610321 81.91565704 13.85643005 81.40736389 C16.92119589 78.32187949 19.16857006 75.74428982 20.5625 71.5625 C28.39524274 54.34067151 28.39524274 54.34067151 35.5625 49.5625 C38.93744032 49.88910713 40.98607133 51.44614787 43.5625 53.5625 C42.28803123 58.03948005 40.62963011 61.11054397 37.75 64.75 C29.21265605 76.19990353 25.3819927 89.95882735 21.5625 103.5625 C32.47016722 98.19523518 38.66895688 90.32980612 45.9609375 80.8984375 C48.71254762 77.34701012 51.59271234 73.93361031 54.5625 70.5625 C54.5625 74.50291228 53.21506206 75.47818357 50.6875 78.4375 C47.89390073 81.7117185 45.95467137 84.47391251 44.5625 88.5625 C48.29679732 84.9413632 51.68039123 81.13283447 55.01171875 77.13671875 C55.52347656 76.61722656 56.03523437 76.09773438 56.5625 75.5625 C57.2225 75.5625 57.8825 75.5625 58.5625 75.5625 C57.07167365 80.06867003 54.56305091 83.46935827 51.625 87.125 C51.13990967 87.7327124 50.65481934 88.3404248 50.1550293 88.96655273 C34.09943805 108.86844555 34.09943805 108.86844555 26.5625 111.5625 C22.9375 111.875 22.9375 111.875 19.5625 110.5625 C16.47514556 107.73412894 13.9386348 104.67677352 13.19140625 100.4765625 C13.1875 98.5625 13.1875 98.5625 13.5625 95.5625 C12.9025 95.5625 12.2425 95.5625 11.5625 95.5625 C11.33175781 96.12453125 11.10101563 96.6865625 10.86328125 97.265625 C9.22607917 100.15654039 7.16717461 102.03665944 4.75 104.3125 C1.67490914 107.3041241 -0.92074996 109.99417159 -3 113.75 C-6.11610754 119.24507137 -11.45695475 123.56898492 -17.4375 125.5625 C-22.74611876 125.90499153 -26.12933491 126.06288413 -30.4375 122.5625 C-30.4375 121.9025 -30.4375 121.2425 -30.4375 120.5625 C-31.30375 120.2840625 -31.30375 120.2840625 -32.1875 120 C-35.57902701 117.83319107 -37.17727581 115.29493433 -38.4375 111.5625 C-39.05404902 106.90016654 -39.30714917 102.26164732 -39.4375 97.5625 C-39.9221875 98.37332031 -40.406875 99.18414062 -40.90625 100.01953125 C-53.42906838 120.70626391 -53.42906838 120.70626391 -60.4375 125.5625 C-64.43426103 126.06209513 -66.72144716 125.89767367 -70.375 124.1875 C-71.055625 123.65125 -71.73625 123.115 -72.4375 122.5625 C-72.4375 121.9025 -72.4375 121.2425 -72.4375 120.5625 C-73.4275 120.2325 -74.4175 119.9025 -75.4375 119.5625 C-80.96980193 111.20036426 -78.09400306 94.60651286 -76.35717773 85.22290039 C-74.55659945 76.92200658 -71.60417794 65.72917794 -65.4375 59.5625 C-61.40589809 59.29956944 -59.87857266 59.26845156 -56.4375 61.5625 C-56.93806375 68.32011066 -58.43504914 73.81427097 -60.8125 80.125 C-64.95903152 91.70341621 -66.36549408 103.36265847 -67.4375 115.5625 C-58.86168655 110.8228449 -53.55898156 102.57755987 -48.1015625 94.65234375 C-47.27785156 93.61787109 -47.27785156 93.61787109 -46.4375 92.5625 C-45.7775 92.5625 -45.1175 92.5625 -44.4375 92.5625 C-44.34082031 92.01980469 -44.24414062 91.47710937 -44.14453125 90.91796875 C-42.93365892 86.88395761 -40.50752501 83.50147805 -38.32421875 79.92578125 C-33.49101331 71.3100672 -30.49499745 62.10635849 -27.4375 52.75 C-27.00824103 51.44712436 -26.57855565 50.14438913 -26.1484375 48.84179688 C-25.93767578 48.20251251 -25.72691406 47.56322815 -25.50976562 46.90457153 C-25.08729064 45.62396453 -24.66411576 44.34358821 -24.24023438 43.06344604 C-23.28080607 40.15889151 -22.34206324 37.25125028 -21.4453125 34.32666016 C-19.21884663 27.1998993 -16.22630914 20.98659471 -12.4375 14.5625 C-11.65632813 13.19158203 -11.65632813 13.19158203 -10.859375 11.79296875 C-4.6431137 1.07148778 -4.6431137 1.07148778 0 0 Z " fill="#845FFF" transform="translate(326.4375,265.4375)"/>
<path d="M0 0 C1.64498952 1.64498952 1.25019886 3.48092676 1.3125 5.75 C1.05302955 24.10163708 -10.23270013 44.34601936 -23 57 C-24.36866027 58.49777916 -25.73699954 59.99589243 -27.09545898 61.50292969 C-37.60747262 73.12579848 -49.88129344 86.62631609 -65 92 C-64.54738482 83.75928223 -63.32708528 75.83700826 -61.71875 67.76171875 C-61.24702053 65.29283029 -60.84593873 62.80918219 -60.5234375 60.31640625 C-60.04690023 57.29715145 -59.35825918 55.02244311 -58.125 52.25 C-55.5059886 45.9908464 -53.84562577 39.5822938 -52.2890625 32.98828125 C-50.91656871 27.22528312 -49.26905948 21.84848076 -46.984375 16.3828125 C-43.63330613 8.45643149 -43.63330613 8.45643149 -43 0 C-43 -0.99 -43 -1.98 -43 -3 C-10.30653825 -7.64678644 -10.30653825 -7.64678644 0 0 Z " fill="#FDFDFF" transform="translate(188,284)"/>
<path d="M0 0 C18 0 18 0 22.3984375 4.36328125 C23.45910415 6.31058721 24.44918187 8.29758685 25.375 10.3125 C26.49108521 12.42184686 27.60961808 14.52990026 28.73046875 16.63671875 C29.26849121 17.70196777 29.80651367 18.7672168 30.36083984 19.86474609 C32.85501204 24.63539837 35.75514085 29.11529878 38.6875 33.625 C40.46523266 36.41231998 42.23420857 39.20510322 44 42 C44.90685547 43.43472656 44.90685547 43.43472656 45.83203125 44.8984375 C47 47 47 47 47 49 C47.66 49 48.32 49 49 49 C49 32.83 49 16.66 49 0 C53.95 0 58.9 0 64 0 C64 25.08 64 50.16 64 76 C48 76 48 76 44.375 72.7578125 C43.13867188 70.56323242 43.13867188 70.56323242 42 68.125 C41.05435905 66.3932866 40.10629969 64.66289236 39.15625 62.93359375 C38.66253906 61.9885498 38.16882813 61.04350586 37.66015625 60.06982422 C34.85538216 54.88346695 31.69786611 49.91328265 28.57519531 44.91473389 C26.27091908 41.21305852 24.00733614 37.48612373 21.73242188 33.76635742 C19.87932488 30.80730414 17.93668748 27.90503122 16 25 C15.67 41.83 15.34 58.66 15 76 C10.05 76 5.1 76 0 76 C0 50.92 0 25.84 0 0 Z " fill="#FF865A" transform="translate(210,134)"/>
<path d="M0 0 C2.625 2 2.625 2 4 4 C4.515625 3.67 5.03125 3.34 5.5625 3 C8.91402596 1.62501499 11.40965387 1.61532006 15 2 C17.7520574 3.9052705 18.79142422 5.03533703 19.5 8.3125 C18.94857908 11.27638745 17.79297468 13.4331505 16.16796875 15.9609375 C12.11053872 23.04447756 10.35101918 30.68315244 8.4375 38.5625 C8.1273999 39.83633545 7.8172998 41.1101709 7.49780273 42.42260742 C4.86375792 53.55803907 3.57586486 64.58847381 3 76 C-0.5631301 76.17935219 -1.69769151 76.20611943 -4.75 74.125 C-7.28136637 71.73426509 -7.93795253 70.92782614 -8.16796875 67.48828125 C-8.25642506 53.10528593 -5.73373308 39.79306248 -2 26 C-2.81791016 27.30710937 -2.81791016 27.30710937 -3.65234375 28.640625 C-7.46517934 34.68038874 -11.34371835 40.57648927 -15.6875 46.25 C-19.54672052 51.29460064 -22.85025226 56.49271381 -26 62 C-26.53109375 62.86753906 -27.0621875 63.73507812 -27.609375 64.62890625 C-29.07198582 66.94837758 -29.07198582 66.94837758 -29.875 69.5 C-31.39697364 72.88216363 -33.07196658 74.72264067 -36 77 C-39.4375 77.6875 -39.4375 77.6875 -43 77 C-46.47590704 74.51165491 -48.6452495 72.06425151 -50 68 C-50.49065341 61.38339442 -49.16242764 56.44584955 -46.75 50.3125 C-46.39719971 49.40693359 -46.04439941 48.50136719 -45.6809082 47.56835938 C-39.04123915 31.16796653 -29.01332929 9.83097813 -12.875 0.8125 C-8.5810743 -0.40100074 -4.42256051 -0.64138314 0 0 Z " fill="#825DFF" transform="translate(230,313)"/>
<path d="M0 0 C0.67807709 -0.00335861 1.35615417 -0.00671722 2.05477905 -0.01017761 C4.30753385 -0.0197151 6.56021452 -0.02163223 8.81298828 -0.02270508 C10.37378979 -0.02591613 11.93459099 -0.02928008 13.49539185 -0.03279114 C16.77232562 -0.0387897 20.04923299 -0.04063034 23.32617188 -0.04003906 C27.52855727 -0.03993749 31.73077351 -0.0535811 35.93311882 -0.07081127 C39.15870951 -0.08192259 42.38425923 -0.08395853 45.6098671 -0.08342934 C47.15923774 -0.0846111 48.7086094 -0.08904382 50.25796127 -0.0967617 C52.42469915 -0.10654261 54.59106889 -0.10369108 56.7578125 -0.09765625 C57.99167694 -0.09908127 59.22554138 -0.10050629 60.49679565 -0.10197449 C63.50830078 0.14526367 63.50830078 0.14526367 66.50830078 2.14526367 C66.91674002 4.85730019 66.64166945 7.38897788 66.50830078 10.14526367 C68.42642578 10.08338867 68.42642578 10.08338867 70.38330078 10.02026367 C72.56298828 9.94995117 72.56298828 9.94995117 74.50830078 10.14526367 C76.50830078 12.14526367 76.50830078 12.14526367 76.70361328 14.30932617 C76.68041016 15.12143555 76.65720703 15.93354492 76.63330078 16.77026367 C76.61525391 17.5875293 76.59720703 18.40479492 76.57861328 19.24682617 C76.55541016 19.87331055 76.53220703 20.49979492 76.50830078 21.14526367 C77.14638672 21.13366211 77.78447266 21.12206055 78.44189453 21.11010742 C79.26818359 21.10108398 80.09447266 21.09206055 80.94580078 21.08276367 C81.76951172 21.07116211 82.59322266 21.05956055 83.44189453 21.04760742 C85.50830078 21.14526367 85.50830078 21.14526367 86.50830078 22.14526367 C86.6132466 23.85243605 86.64795254 25.56395927 86.6554718 27.27433777 C86.66262711 28.38612396 86.66978241 29.49791016 86.67715454 30.64338684 C86.67984344 31.87401352 86.68253235 33.1046402 86.68530273 34.37255859 C86.69187393 35.66029175 86.69844513 36.9480249 86.70521545 38.27478027 C86.7226528 41.81839309 86.73318542 45.36199238 86.74142098 48.9056375 C86.74656715 51.11933297 86.75264317 53.3330242 86.75893211 55.54671669 C86.77799496 62.47187175 86.79222169 69.3970161 86.80054408 76.32219237 C86.81031049 84.31736907 86.83660955 92.31226847 86.87704498 100.30734748 C86.90721587 106.48490737 86.92201401 112.66238786 86.9253251 118.84002 C86.92767524 122.53026858 86.9366298 126.22022129 86.96178627 129.91039085 C86.98941975 134.03076958 86.98523292 138.15053058 86.97827148 142.27099609 C86.99108154 143.49150162 87.0038916 144.71200714 87.01708984 145.96949768 C86.95213229 156.50185349 86.95213229 156.50185349 82.50830078 161.14526367 C79.43343798 163.33393026 76.81529296 163.38968887 73.09716797 163.37231445 C72.01634949 163.37216339 70.93553101 163.37201233 69.82196045 163.37185669 C68.66142151 163.36153412 67.50088257 163.35121155 66.30517578 163.34057617 C64.51578583 163.33633133 64.51578583 163.33633133 62.69024658 163.33200073 C58.87949602 163.3208042 55.06898033 163.2957002 51.25830078 163.27026367 C48.67497084 163.26023321 46.09163722 163.25110747 43.50830078 163.24291992 C37.17488729 163.22086656 30.84161082 163.18739403 24.50830078 163.14526367 C24.50830078 159.14526367 24.50830078 159.14526367 25.50830078 158.14526367 C28.31993458 158.05664375 31.10688334 158.03004012 33.91845703 158.04760742 C34.76049179 158.04902237 35.60252655 158.05043732 36.47007751 158.05189514 C39.17035413 158.05751104 41.87054906 158.07006619 44.57080078 158.08276367 C46.39697146 158.08777663 48.22314344 158.09233989 50.04931641 158.09643555 C54.5356762 158.10748563 59.02197462 158.12476088 63.50830078 158.14526367 C62.84830078 157.15526367 62.18830078 156.16526367 61.50830078 155.14526367 C61.26779175 152.01313782 61.26779175 152.01313782 61.28125 148.10351562 C61.28095795 147.39106689 61.28066589 146.67861816 61.28036499 145.94458008 C61.28175782 143.5907776 61.29731659 141.23729207 61.31298828 138.88354492 C61.31671858 137.25115634 61.31956547 135.61876552 61.32156372 133.9863739 C61.32919884 129.69060074 61.34884626 125.39496288 61.37097168 121.09924316 C61.39143273 116.71551341 61.40056599 112.33176179 61.41064453 107.94799805 C61.43209229 99.34702451 61.46622674 90.74616092 61.50830078 82.14526367 C63.44580078 81.58276367 63.44580078 81.58276367 65.50830078 81.14526367 C67.3827361 83.01969899 66.65300564 86.21526679 66.66601562 88.71289062 C66.67109634 89.39911499 66.67617706 90.08533936 66.68141174 90.7923584 C66.69213728 92.28744021 66.70074884 93.7825383 66.70753098 95.2776432 C66.71928952 97.64385579 66.73873502 100.00988332 66.76065063 102.37602234 C66.82236341 109.10527387 66.87629956 115.83450849 66.90966797 122.56396484 C66.93061042 126.67607487 66.96591362 130.78785128 67.01042557 134.89977074 C67.02459356 136.4678066 67.03330982 138.03590152 67.03647995 139.60399818 C67.04138725 141.79950475 67.06453993 143.9941263 67.09179688 146.18945312 C67.09988373 147.43886185 67.10797058 148.68827057 67.11630249 149.97554016 C67.53625415 153.37129639 68.03010588 154.81363733 70.50830078 157.14526367 C75.10932223 157.77142855 75.10932223 157.77142855 79.20213032 155.94655132 C80.97333221 153.50395736 80.89242524 151.89245023 80.9070282 148.88716125 C80.92583542 147.25283646 80.92583542 147.25283646 80.94502258 145.585495 C80.94286995 143.79230583 80.94286995 143.79230583 80.94067383 141.96289062 C80.95086548 140.70424194 80.96105713 139.44559326 80.97155762 138.14880371 C80.99917392 134.69658927 81.00841831 131.24453955 81.01441169 127.79222894 C81.02378341 124.18467679 81.04998576 120.57724827 81.07441711 116.96977234 C81.11811905 110.13815662 81.14664324 103.30656485 81.1697405 96.47485179 C81.19677244 88.69735017 81.24068513 80.9199727 81.28602922 73.14255965 C81.37892835 57.14352475 81.45058487 41.1444665 81.50830078 25.14526367 C79.85830078 25.14526367 78.20830078 25.14526367 76.50830078 25.14526367 C76.50830078 65.40526367 76.50830078 105.66526367 76.50830078 147.14526367 C75.18830078 147.47526367 73.86830078 147.80526367 72.50830078 148.14526367 C71.50830078 147.14526367 71.50830078 147.14526367 71.38525295 144.96072292 C71.38617475 143.98823133 71.38709654 143.01573973 71.38804626 142.01377869 C71.38598427 140.34571419 71.38598427 140.34571419 71.38388062 138.64395142 C71.38927353 136.7978981 71.38927353 136.7978981 71.39477539 134.91455078 C71.39462936 133.62693344 71.39448334 132.3393161 71.39433289 131.01268005 C71.39404492 127.47151607 71.39994142 123.93038568 71.40690684 120.38922954 C71.41314062 116.69231379 71.4137442 112.99539736 71.41493225 109.29847717 C71.4180455 102.29322468 71.4262588 95.28798772 71.43628174 88.28274208 C71.44744308 80.30947492 71.45295338 72.33620702 71.45797718 64.36293399 C71.46844142 47.95703478 71.48604073 31.55115121 71.50830078 15.14526367 C69.85830078 15.14526367 68.20830078 15.14526367 66.50830078 15.14526367 C66.50830078 34.61526367 66.50830078 54.08526367 66.50830078 74.14526367 C65.18830078 74.47526367 63.86830078 74.80526367 62.50830078 75.14526367 C61.50830078 74.14526367 61.50830078 74.14526367 61.38804626 71.40550232 C61.39026688 70.18194534 61.39248749 68.95838837 61.39477539 67.69775391 C61.39462936 67.02461151 61.39448334 66.35146912 61.39433289 65.65792847 C61.395032 63.42320583 61.40282426 61.18856558 61.41064453 58.95385742 C61.41250872 57.40829005 61.41393262 55.8627221 61.41493225 54.31715393 C61.41875738 50.24169291 61.42858761 46.1662673 61.43963623 42.09082031 C61.45164512 37.20498639 61.45625262 32.31914065 61.46208954 27.4332962 C61.47179938 20.00392736 61.49095594 12.5746363 61.50830078 5.14526367 C39.06830078 5.14526367 16.62830078 5.14526367 -6.49169922 5.14526367 C-6.82169922 3.82526367 -7.15169922 2.50526367 -7.49169922 1.14526367 C-5.62557772 -0.72085783 -2.48945372 0.00770064 0 0 Z " fill="#121313" transform="translate(90.49169921875,87.854736328125)"/>
<path d="M0 0 C0.88022827 0.00404846 1.76045654 0.00809692 2.6673584 0.01226807 C4.0210553 0.00939789 4.0210553 0.00939789 5.40209961 0.00646973 C7.31197386 0.00510748 9.22185736 0.00880669 11.13171387 0.01715088 C14.0617749 0.02784986 16.99122278 0.01725696 19.92126465 0.00445557 C21.77413059 0.00577715 23.62699615 0.00833953 25.4798584 0.01226807 C26.80020081 0.00619537 26.80020081 0.00619537 28.1472168 0 C34.3436918 0.04797647 34.3436918 0.04797647 36.5736084 2.27789307 C36.82084656 4.63764954 36.82084656 4.63764954 36.81652832 7.62969971 C36.82114326 9.30637474 36.82114326 9.30637474 36.82585144 11.016922 C36.81866592 12.22839401 36.81148041 13.43986603 36.80407715 14.68804932 C36.80361893 15.92582626 36.80316071 17.16360321 36.8026886 18.43888855 C36.798887 21.73147354 36.78586664 25.02386666 36.76922607 28.31640625 C36.75577004 31.67140953 36.75895024 35.02637936 36.75915527 38.38140869 C36.75424008 40.92112424 36.74841175 43.46083821 36.74157715 46.00054932 C36.74046432 47.21404556 36.7393515 48.42754181 36.73820496 49.67781067 C36.7318251 50.79244186 36.72544525 51.90707306 36.71887207 53.05548096 C36.71315437 54.5353524 36.71315437 54.5353524 36.70732117 56.04512024 C36.5736084 58.27789307 36.5736084 58.27789307 35.5736084 59.27789307 C34.22816513 59.37574648 32.87768277 59.40587292 31.52868652 59.4072876 C30.67109741 59.41043976 29.8135083 59.41359192 28.92993164 59.4168396 C27.99765747 59.41481537 27.0653833 59.41279114 26.1048584 59.41070557 C24.67889343 59.41214066 24.67889343 59.41214066 23.22412109 59.41360474 C21.20991958 59.41428663 19.19571588 59.41243169 17.18151855 59.40826416 C14.08690485 59.40291605 10.9924363 59.40820884 7.89782715 59.41461182 C5.94600391 59.41395104 3.99418076 59.41266988 2.0423584 59.41070557 C0.64394714 59.41374191 0.64394714 59.41374191 -0.78271484 59.4168396 C-1.64030396 59.41368744 -2.49789307 59.41053528 -3.38146973 59.4072876 C-4.14012329 59.406492 -4.89877686 59.40569641 -5.68041992 59.40487671 C-7.4263916 59.27789307 -7.4263916 59.27789307 -8.4263916 58.27789307 C-8.52519957 56.80136643 -8.55718406 55.32022071 -8.5592041 53.84039307 C-8.56049316 52.94578369 -8.56178223 52.05117432 -8.56311035 51.12945557 C-8.55730957 49.71793213 -8.55730957 49.71793213 -8.5513916 48.27789307 C-8.55525879 47.33687744 -8.55912598 46.39586182 -8.56311035 45.42633057 C-8.56182129 44.53172119 -8.56053223 43.63711182 -8.5592041 42.71539307 C-8.55751221 41.47595947 -8.55751221 41.47595947 -8.55578613 40.21148682 C-8.4263916 38.27789307 -8.4263916 38.27789307 -7.4263916 37.27789307 C-7.25972493 34.27789307 -7.25972493 34.27789307 -7.4263916 31.27789307 C-7.7563916 30.94789307 -8.0863916 30.61789307 -8.4263916 30.27789307 C-8.6805471 25.63773981 -8.61161958 20.98668 -8.6138916 16.34039307 C-8.6261377 15.02619385 -8.63838379 13.71199463 -8.65100098 12.35797119 C-8.65390137 10.47948486 -8.65390137 10.47948486 -8.65686035 8.56304932 C-8.66096924 7.40684082 -8.66507813 6.25063232 -8.66931152 5.05938721 C-8.17770181 -0.56966748 -4.85863482 0.03761818 0 0 Z " fill="#9289C4" transform="translate(54.4263916015625,148.72210693359375)"/>
<path d="M0 0 C4.62 0 9.24 0 14 0 C14.48210937 2.24039063 14.96421875 4.48078125 15.4609375 6.7890625 C15.93344348 8.97364469 16.40709675 11.15797519 16.88085938 13.34228516 C17.207905 14.85309376 17.53376916 16.36415864 17.85839844 17.87548828 C18.32692305 20.05570865 18.79977781 22.23495272 19.2734375 24.4140625 C19.41623138 25.08305573 19.55902527 25.75204895 19.70614624 26.4413147 C20.57015631 30.39254007 21.65323315 34.1867406 23 38 C23.15557373 37.45287354 23.31114746 36.90574707 23.47143555 36.34204102 C26.9232441 24.21067569 30.41789931 12.09355232 34 0 C38.29 0 42.58 0 47 0 C48.08490882 3.54119115 49.1683225 7.08282141 50.25 10.625 C50.5692041 11.66994629 50.8884082 12.71489258 51.21728516 13.79150391 C53.32657175 20.72079397 55.35628488 27.66333362 57.2734375 34.6484375 C57.77951872 36.93513744 57.77951872 36.93513744 59 38 C59.95949454 33.54191577 60.91738274 29.08348782 61.875 24.625 C62.14441406 23.37332031 62.41382813 22.12164062 62.69140625 20.83203125 C64.17995373 13.89757835 65.62953404 6.95877374 67 0 C71.29 0 75.58 0 80 0 C79.40105754 6.94488049 78.02526469 13.39307216 76.25 20.125 C73.7923308 29.66144355 71.58029031 39.2250238 69.56152344 48.86376953 C69.36977539 49.77239746 69.17802734 50.68102539 68.98046875 51.6171875 C68.73139771 52.81770752 68.73139771 52.81770752 68.47729492 54.04248047 C68 56 68 56 67 58 C62.05 58 57.1 58 52 58 C49.20465707 52.04216461 47.54642802 45.9948736 45.9375 39.625 C45.68162109 38.635 45.42574219 37.645 45.16210938 36.625 C43.66032642 30.77229318 42.27770654 24.90557186 41 19 C40.34 19 39.68 19 39 19 C38.89429688 19.90878906 38.78859375 20.81757813 38.6796875 21.75390625 C37.89390383 27.23647053 36.4754021 32.5721219 35.125 37.9375 C34.86847656 38.98357422 34.61195313 40.02964844 34.34765625 41.10742188 C32.89606885 46.91012425 31.23102628 52.44915317 29 58 C24.05 58 19.1 58 14 58 C9.93456433 44.23868013 6.76956008 30.333469 3.72949219 16.31396484 C2.53018977 10.86572824 1.26396707 5.4335626 0 0 Z " fill="#FF875B" transform="translate(348,152)"/>
<path d="M0 0 C4.73935871 3.64566055 7.59606621 7.95243725 8.953125 13.78125 C9.3077621 18.81203064 9.34491424 23.74579485 8.953125 28.78125 C7.953125 29.78125 7.953125 29.78125 4.44311523 29.89477539 C2.88264078 29.89461626 1.32216107 29.88892142 -0.23828125 29.87890625 C-1.05811996 29.8774913 -1.87795868 29.87607635 -2.72264099 29.87461853 C-5.35158882 29.86900289 -7.98045273 29.85644779 -10.609375 29.84375 C-12.38736857 29.83873701 -14.16536346 29.83417376 -15.94335938 29.83007812 C-20.31123045 29.81902839 -24.67903848 29.80175331 -29.046875 29.78125 C-28.61001954 31.23084154 -28.1610544 32.67678723 -27.70703125 34.12109375 C-27.45832275 34.92667725 -27.20961426 35.73226074 -26.95336914 36.56225586 C-26.10095174 39.05789042 -26.10095174 39.05789042 -23.484375 41.34375 C-18.87653075 43.27066669 -14.97173184 43.59540786 -10.046875 42.78125 C-6.94007751 41.44351426 -4.59813906 39.88377811 -3.046875 36.78125 C1.46790898 37.31240106 4.29979357 39.14745292 7.953125 41.78125 C6.18383124 47.41082104 3.00733253 50.58296228 -2.046875 53.53125 C-10.32840992 56.98188955 -20.5726162 57.14745353 -28.94921875 53.87890625 C-37.16324328 49.5806923 -40.91906579 43.55025378 -43.62890625 34.9296875 C-45.59966374 24.79962563 -44.38100179 14.74273551 -38.859375 6.03125 C-29.7372493 -5.77546524 -12.40627765 -7.38694394 0 0 Z " fill="#FF875B" transform="translate(333.046875,155.21875)"/>
<path d="M0 0 C2.6875 -0.375 2.6875 -0.375 6 0 C9.05187677 2.66816127 10.69599266 4.41199744 11.46411133 8.42431641 C11.63961092 11.30042975 11.64110126 14.11959145 11.5625 17 C11.54445313 18.02875244 11.52640625 19.05750488 11.5078125 20.11743164 C11.04875211 34.71440428 5.8695195 46.35207828 -1 59 C-1.495 59.9276416 -1.495 59.9276416 -2 60.87402344 C-5.99414585 68.31875699 -5.99414585 68.31875699 -8 71 C-8.99 71 -9.98 71 -11 71 C-11.268125 72.134375 -11.53625 73.26875 -11.8125 74.4375 C-12.204375 75.613125 -12.59625 76.78875 -13 78 C-13.99 78.33 -14.98 78.66 -16 79 C-16.67106719 80.67766799 -17.34148546 82.35559996 -18.0078125 84.03515625 C-21.28946893 90.53386957 -28.58435003 95.86933919 -35 99 C-38.16436054 99.78270402 -39.67231245 99.62041632 -43 99 C-46.47632003 95.61281638 -47.89593017 93.07915891 -48.359375 88.2734375 C-48.28828763 83.6381226 -46.33230039 80.9368113 -43.25 77.625 C-42.75628906 77.07118652 -42.26257813 76.51737305 -41.75390625 75.94677734 C-35.06090221 68.62366997 -27.59399588 62.45954251 -19.0625 57.375 C-14.03212257 54.31334582 -11.64909544 51.16291792 -9 46 C-8.01755155 44.65368175 -7.02323436 43.31558703 -6 42 C-5.34 41.01 -4.68 40.02 -4 39 C-4.33 38.34 -4.66 37.68 -5 37 C-4.2578125 34.57421875 -4.2578125 34.57421875 -3.125 31.6875 C-0.73554538 25.56347819 0.12200393 20.58821234 0 14 C0 13.01 0 12.02 0 11 C-0.495 10.505 -0.495 10.505 -1 10 C-1.66 10.33 -2.32 10.66 -3 11 C-1.515 5.555 -1.515 5.555 0 0 Z " fill="#8460FF" transform="translate(397,310)"/>
<path d="M0 0 C1.4032811 1.16224694 2.72968051 2.41637888 4.03515625 3.6875 C3.13486054 5.03194159 2.21427603 6.36281438 1.28515625 7.6875 C0.51945312 8.80125 0.51945312 8.80125 -0.26171875 9.9375 C-0.82375 10.515 -1.38578125 11.0925 -1.96484375 11.6875 C-5.96484375 11.6875 -5.96484375 11.6875 -8.58984375 10.1875 C-13.08078521 8.19152602 -17.11218732 8.23365443 -21.96484375 8.6875 C-22.95484375 9.1825 -22.95484375 9.1825 -23.96484375 9.6875 C-23.96484375 11.6675 -23.96484375 13.6475 -23.96484375 15.6875 C-22.72734375 16.1 -21.48984375 16.5125 -20.21484375 16.9375 C-19.40015625 17.21078125 -18.58546875 17.4840625 -17.74609375 17.765625 C-15.79181112 18.41339284 -13.83301584 19.04762706 -11.87109375 19.671875 C-10.30875 20.17460937 -10.30875 20.17460937 -8.71484375 20.6875 C-7.7403125 20.996875 -6.76578125 21.30625 -5.76171875 21.625 C-0.54423286 23.60706168 2.67680892 25.64877041 5.30859375 30.73046875 C7.07717856 35.49423752 6.37357272 39.53290265 4.97265625 44.3125 C1.97129131 49.54068409 -1.57774049 52.63717457 -7.08984375 55.0625 C-17.8253388 56.79403146 -26.91194891 56.09913164 -36.40234375 50.75 C-38.96484375 48.6875 -38.96484375 48.6875 -40.96484375 44.6875 C-38.65484375 42.0475 -36.34484375 39.4075 -33.96484375 36.6875 C-29.80226597 37.72814444 -28.17267919 38.98616489 -24.96484375 41.6875 C-22.37731219 42.98126578 -20.4152539 42.85582397 -17.52734375 42.875 C-16.55925781 42.88917969 -15.59117187 42.90335938 -14.59375 42.91796875 C-11.73217648 42.87899451 -11.73217648 42.87899451 -8.96484375 40.6875 C-9.29484375 38.7075 -9.62484375 36.7275 -9.96484375 34.6875 C-10.50898926 34.52668945 -11.05313477 34.36587891 -11.61376953 34.20019531 C-14.10902269 33.4563414 -16.5993317 32.69706966 -19.08984375 31.9375 C-20.37375 31.55851562 -20.37375 31.55851562 -21.68359375 31.171875 C-28.27247983 29.14452544 -33.10699173 27.18093298 -37.33984375 21.5 C-39.48054181 17.30854918 -39.79032163 13.29501427 -38.96484375 8.6875 C-36.40009637 3.55800525 -32.54028561 -0.85359878 -27.1171875 -3.06640625 C-18.22176949 -5.5953223 -7.87508976 -5.26049733 0 0 Z " fill="#FF875B" transform="translate(473.96484375,155.3125)"/>
<path d="M0 0 C1.65 0 3.3 0 5 0 C5.33 43.56 5.66 87.12 6 132 C6.99 132 7.98 132 9 132 C9.33 91.74 9.66 51.48 10 10 C11.65 10 13.3 10 15 10 C15.09341617 26.75039083 15.16396575 43.50069724 15.20724869 60.25128555 C15.22787935 68.02877761 15.25600938 75.80610788 15.30175781 83.58349609 C15.34161039 90.36179675 15.36742915 97.13998025 15.37635398 103.9183948 C15.38157149 107.50801264 15.39384439 111.09729526 15.42292023 114.68680573 C15.45510624 118.69272266 15.45596045 122.69805579 15.45410156 126.70410156 C15.46848267 127.89596573 15.48286377 129.0878299 15.49768066 130.31581116 C15.49218201 131.40673569 15.48668335 132.49766022 15.48101807 133.62164307 C15.48470524 134.56924625 15.48839241 135.51684944 15.49219131 136.49316788 C14.84627158 139.78297062 13.61953511 140.96653663 11 143 C7.5 143.5625 7.5 143.5625 4 143 C1.16966414 140.28913701 0.0947545 138.61540661 -0.50552368 134.7167511 C-0.50837372 133.47257919 -0.51122375 132.22840729 -0.51416016 130.9465332 C-0.52128525 130.25651215 -0.52841034 129.56649109 -0.53575134 128.8555603 C-0.55496796 126.58700582 -0.54676764 124.31938957 -0.5390625 122.05078125 C-0.54897062 120.47086731 -0.56091231 118.89096492 -0.57479858 117.31108093 C-0.60712528 113.16078765 -0.61755055 109.01075835 -0.62164307 104.86035156 C-0.63040953 98.20676396 -0.66579047 91.55339253 -0.7138176 84.89998436 C-0.72643447 82.57438008 -0.72564251 80.24904782 -0.72354126 77.92341614 C-0.73011875 76.50403633 -0.73712445 75.08465841 -0.74462891 73.6652832 C-0.74588776 72.42349808 -0.74714661 71.18171295 -0.7484436 69.90229797 C-0.69738484 66.87367777 -0.69738484 66.87367777 -3 65 C-2.67657623 64.13575409 -2.35315247 63.27150818 -2.01992798 62.381073 C-1.00902864 59.02993005 -0.72601782 56.38738427 -0.68115234 52.90283203 C-0.66128265 51.72206085 -0.64141296 50.54128967 -0.62094116 49.32473755 C-0.60938995 48.06515228 -0.59783875 46.80556702 -0.5859375 45.5078125 C-0.56657135 44.20673553 -0.5472052 42.90565857 -0.5272522 41.56515503 C-0.47612061 38.12279236 -0.43639412 34.68039078 -0.39910889 31.237854 C-0.35894952 27.71836879 -0.3079119 24.19904277 -0.2578125 20.6796875 C-0.16127833 13.78657491 -0.07680224 6.89335992 0 0 Z " fill="#DCEAEF" transform="translate(157,103)"/>
<path d="M0 0 C1.23093636 0.00033989 1.23093636 0.00033989 2.48674011 0.00068665 C3.36808121 0.0161705 4.2494223 0.03165436 5.1574707 0.04760742 C6.5161602 0.05397469 6.5161602 0.05397469 7.90229797 0.06047058 C10.79625128 0.07726769 13.68950902 0.11492167 16.58325195 0.15307617 C18.54483044 0.16812168 20.50641984 0.18181032 22.46801758 0.1940918 C27.27753051 0.2271746 32.08652329 0.27896395 36.89575195 0.34057617 C37.45825195 2.27807617 37.45825195 2.27807617 37.89575195 4.34057617 C36.89575195 5.34057617 36.89575195 5.34057617 33.20214844 5.45410156 C31.55703903 5.45394241 29.91192464 5.44824606 28.2668457 5.43823242 C26.9704995 5.43611 26.9704995 5.43611 25.64796448 5.4339447 C22.87635903 5.42832856 20.10483315 5.41577336 17.33325195 5.40307617 C15.45890416 5.39806325 13.5845551 5.39349998 11.71020508 5.3894043 C7.10535652 5.37835389 2.50056774 5.36107847 -2.10424805 5.34057617 C-2.04374886 24.56839455 -1.96627408 43.79607284 -1.86853313 63.02373886 C-1.82354807 71.95127941 -1.7841397 80.87877982 -1.7578125 89.80639648 C-1.73485432 97.58678833 -1.70148084 105.36705345 -1.65554649 113.14734483 C-1.63158473 117.26780221 -1.61287536 121.38813386 -1.60663414 125.50865936 C-1.60059656 129.38616379 -1.58064522 133.2633464 -1.54997253 137.14073181 C-1.54117093 138.5645296 -1.53747412 139.9883694 -1.53923988 141.4121933 C-1.54088881 143.35513436 -1.52245083 145.29806161 -1.50297546 147.24090576 C-1.49606202 148.87247934 -1.49606202 148.87247934 -1.4890089 150.53701401 C-1.05441458 153.70368801 -0.35176247 155.09394409 1.89575195 157.34057617 C4.81523117 157.96049777 4.81523117 157.96049777 8.203125 157.88647461 C9.50424728 157.90619324 10.80536957 157.92591187 12.1459198 157.94622803 C13.56643634 157.9478912 14.98695344 157.94912206 16.4074707 157.94995117 C17.86051786 157.96493039 19.31354797 157.981657 20.76655579 158.00006104 C24.58880386 158.04377673 28.41082227 158.06374264 32.23327637 158.07879639 C36.1345785 158.09835255 40.03563204 158.1403241 43.93676758 158.18041992 C51.58969561 158.25576749 59.24251946 158.30603101 66.89575195 158.34057617 C67.55575195 159.66057617 68.21575195 160.98057617 68.89575195 162.34057617 C67.06899124 164.16733689 64.18222699 163.50645883 61.72705078 163.53344727 C60.76105453 163.5457135 60.76105453 163.5457135 59.77554321 163.55822754 C57.63463275 163.58312906 55.49378902 163.59961343 53.3527832 163.61401367 C52.25661965 163.62199919 52.25661965 163.62199919 51.13831139 163.63014603 C47.26702294 163.65690399 43.39576696 163.67626641 39.52441406 163.69067383 C35.53051935 163.70728804 31.53745528 163.75202953 27.54387379 163.80304527 C24.46999706 163.83676249 21.39631585 163.84825631 18.32227135 163.85390091 C16.85068129 163.86060599 15.37910376 163.87580902 13.90769386 163.89979172 C0.94499928 164.09893889 0.94499928 164.09893889 -2.9296875 161.12036133 C-6.52755135 156.52113849 -7.35411158 152.8571251 -7.36494446 147.06491089 C-7.37202927 145.80024994 -7.37911407 144.53558899 -7.38641357 143.23260498 C-7.38411999 141.83874476 -7.38161033 140.44488488 -7.37890625 139.05102539 C-7.38325524 137.57733909 -7.38843902 136.10365505 -7.39439392 134.62997437 C-7.40777125 130.63430314 -7.40836428 126.63872657 -7.40583062 122.64303732 C-7.40476061 119.30775095 -7.40964476 115.9724837 -7.41443604 112.63720143 C-7.42552564 104.77187296 -7.42597092 96.90659226 -7.41992188 89.04125977 C-7.41387391 80.92219149 -7.42621513 72.80329616 -7.44749194 64.68425739 C-7.46508699 57.71430476 -7.47111285 50.74440729 -7.4678542 43.77443326 C-7.46603873 39.61101712 -7.46870422 35.44772452 -7.48256874 31.28432846 C-7.49510939 27.37234355 -7.49323902 23.46062941 -7.48015785 19.54864883 C-7.47778472 18.11150269 -7.48055303 16.67433769 -7.48878098 15.23721313 C-7.49918637 13.27892477 -7.48937993 11.32055978 -7.47846985 9.36227417 C-7.47863759 8.26538206 -7.47880533 7.16848995 -7.47897816 6.03835869 C-7.10424805 3.34057617 -7.10424805 3.34057617 -5.70068932 1.48676777 C-3.66679628 0.02650039 -2.49096252 -0.0229935 0 0 Z " fill="#161616" transform="translate(39.104248046875,87.659423828125)"/>
<path d="M0 0 C0.87709122 0.00091141 1.75418243 0.00182281 2.65785217 0.00276184 C3.5579451 -0.00152328 4.45803802 -0.00580841 5.38540649 -0.01022339 C7.29107318 -0.01597221 9.19676182 -0.0164629 11.10243225 -0.01213074 C14.02167652 -0.00897322 16.93990536 -0.03241424 19.85902405 -0.05778503 C21.70863214 -0.06005818 23.55824297 -0.06076145 25.40785217 -0.05973816 C26.28291916 -0.06894791 27.15798615 -0.07815765 28.05957031 -0.08764648 C28.87373917 -0.08141769 29.68790802 -0.0751889 30.52674866 -0.06877136 C31.24241501 -0.06940079 31.95808136 -0.07003021 32.69543457 -0.07067871 C35.16770564 0.41527892 36.06047593 1.3456928 37.59925842 3.30354309 C37.98744202 5.52424622 37.98744202 5.52424622 37.99769592 8.08479309 C38.0034967 9.47117981 38.0034967 9.47117981 38.00941467 10.88557434 C37.99781311 11.84850403 37.98621155 12.81143372 37.97425842 13.80354309 C37.98585999 14.76647278 37.99746155 15.72940247 38.00941467 16.72151184 C38.00554749 17.64576965 38.0016803 18.57002747 37.99769592 19.52229309 C37.99431213 20.36727356 37.99092834 21.21225403 37.98744202 22.08283997 C37.50568909 24.83883029 36.76132263 25.57356759 34.59925842 27.30354309 C32.69543457 27.67776489 32.69543457 27.67776489 30.52674866 27.67585754 C29.7125798 27.68208633 28.89841095 27.68831512 28.05957031 27.69473267 C26.74696983 27.68091805 26.74696983 27.68091805 25.40785217 27.66682434 C24.05627769 27.6675721 24.05627769 27.6675721 22.67739868 27.66833496 C20.77348117 27.66599507 18.86956054 27.65627154 16.9657135 27.63972473 C14.04445387 27.61610531 11.12410505 27.61916765 8.20277405 27.62580872 C6.35446129 27.62023292 4.50615239 27.61312365 2.65785217 27.60432434 C1.78076096 27.60523575 0.90366974 27.60614716 0 27.60708618 C-6.16971213 27.53457254 -6.16971213 27.53457254 -8.40074158 25.30354309 C-8.65953064 22.99690247 -8.65953064 22.99690247 -8.66636658 20.14729309 C-8.6689447 19.12506653 -8.67152283 18.10283997 -8.67417908 17.04963684 C-8.66257751 15.44282043 -8.66257751 15.44282043 -8.65074158 13.80354309 C-8.65847595 12.73233215 -8.66621033 11.66112122 -8.67417908 10.55744934 C-8.67160095 9.53522278 -8.66902283 8.51299622 -8.66636658 7.45979309 C-8.66411072 6.519422 -8.66185486 5.5790509 -8.65953064 4.61018372 C-8.07160097 -0.63015541 -4.41419565 0.05188077 0 0 Z " fill="#70C5CD" transform="translate(106.40074157714844,148.6964569091797)"/>
<path d="M0 0 C0.83426514 -0.00630432 1.66853027 -0.01260864 2.52807617 -0.019104 C3.43017822 -0.01505554 4.33228027 -0.01100708 5.26171875 -0.00683594 C6.64870972 -0.00970612 6.64870972 -0.00970612 8.0637207 -0.01263428 C10.02067334 -0.0139966 11.97763499 -0.0102969 13.93457031 -0.00195312 C16.93705465 0.00874572 19.93894062 -0.00184685 22.94140625 -0.01464844 C24.83984508 -0.01332685 26.73828353 -0.01076448 28.63671875 -0.00683594 C29.5388208 -0.0108844 30.44092285 -0.01493286 31.37036133 -0.019104 C32.62175903 -0.00964752 32.62175903 -0.00964752 33.8984375 0 C34.63408936 0.00159119 35.36974121 0.00318237 36.12768555 0.00482178 C37.94921875 0.25878906 37.94921875 0.25878906 39.94921875 2.25878906 C40.20800781 4.47363281 40.20800781 4.47363281 40.21484375 7.19628906 C40.21871094 8.66195312 40.21871094 8.66195312 40.22265625 10.15722656 C40.21492188 11.18074219 40.2071875 12.20425781 40.19921875 13.25878906 C40.21082031 14.7940625 40.21082031 14.7940625 40.22265625 16.36035156 C40.22007812 17.33746094 40.2175 18.31457031 40.21484375 19.32128906 C40.21258789 20.21976563 40.21033203 21.11824219 40.20800781 22.04394531 C39.94921875 24.25878906 39.94921875 24.25878906 37.94921875 26.25878906 C36.08299255 26.50602722 36.08299255 26.50602722 33.79077148 26.50170898 C32.9332579 26.50478561 32.07574432 26.50786224 31.19224548 26.5110321 C30.2651326 26.50384659 29.33801971 26.49666107 28.3828125 26.48925781 C27.43358414 26.48879959 26.48435577 26.48834137 25.50636292 26.48786926 C23.49812572 26.48484545 21.48989091 26.4769553 19.48168945 26.46459961 C16.39591226 26.44634345 13.31043492 26.44408988 10.22460938 26.44433594 C8.27734114 26.43942089 6.33007495 26.43359263 4.3828125 26.42675781 C3.45367538 26.42564499 2.52453827 26.42453217 1.56724548 26.42338562 C0.28570335 26.41381584 0.28570335 26.41381584 -1.02172852 26.40405273 C-1.77736588 26.40024094 -2.53300323 26.39642914 -3.3115387 26.39250183 C-5.05078125 26.25878906 -5.05078125 26.25878906 -6.05078125 25.25878906 C-6.30286847 21.45290762 -6.23600469 17.6345345 -6.23828125 13.82128906 C-6.25052734 12.74556641 -6.26277344 11.66984375 -6.27539062 10.56152344 C-6.27732422 9.53478516 -6.27925781 8.50804687 -6.28125 7.45019531 C-6.28535889 6.50345947 -6.28946777 5.55672363 -6.29370117 4.58129883 C-5.85306568 0.36846926 -3.74432174 0.00809882 0 0 Z " fill="#F3788B" transform="translate(104.05078125,181.7412109375)"/>
<path d="M0 0 C2.37071524 0.93391812 4.10040534 2.20077939 6.0625 3.8125 C4.78803123 8.28948005 3.12963011 11.36054397 0.25 15 C-8.28734395 26.44990353 -12.1180073 40.20882735 -15.9375 53.8125 C-5.02983278 48.44523518 1.16895688 40.57980612 8.4609375 31.1484375 C11.21254762 27.59701012 14.09271234 24.18361031 17.0625 20.8125 C17.0625 24.75291228 15.71506206 25.72818357 13.1875 28.6875 C10.39390073 31.9617185 8.45467137 34.72391251 7.0625 38.8125 C10.79679732 35.1913632 14.18039123 31.38283447 17.51171875 27.38671875 C18.27935547 26.60748047 18.27935547 26.60748047 19.0625 25.8125 C19.7225 25.8125 20.3825 25.8125 21.0625 25.8125 C19.57167365 30.31867003 17.06305091 33.71935827 14.125 37.375 C13.63990967 37.9827124 13.15481934 38.5904248 12.6550293 39.21655273 C-3.40056195 59.11844555 -3.40056195 59.11844555 -10.9375 61.8125 C-14.5625 62.125 -14.5625 62.125 -17.9375 60.8125 C-21.02485444 57.98412894 -23.5613652 54.92677352 -24.30859375 50.7265625 C-24.3125 48.8125 -24.3125 48.8125 -23.9375 45.8125 C-28.23908769 48.09771846 -31.54683509 51.07574679 -35.0703125 54.38671875 C-36.9375 55.8125 -36.9375 55.8125 -39.9375 55.8125 C-40.5975 55.4825 -41.2575 55.1525 -41.9375 54.8125 C-41.51597656 54.36519531 -41.09445312 53.91789062 -40.66015625 53.45703125 C-40.11230469 52.85246094 -39.56445312 52.24789062 -39 51.625 C-38.45472656 51.03332031 -37.90945313 50.44164062 -37.34765625 49.83203125 C-35.77038257 47.88622565 -35.77038257 47.88622565 -35.55615234 45.4152832 C-34.83039338 42.36188294 -33.87632584 41.29530605 -31.62890625 39.1484375 C-30.96439453 38.50132812 -30.29988281 37.85421875 -29.61523438 37.1875 C-28.91720703 36.5275 -28.21917969 35.8675 -27.5 35.1875 C-26.12424306 33.86411635 -24.75046048 32.53867635 -23.37890625 31.2109375 C-22.76732666 30.63005371 -22.15574707 30.04916992 -21.52563477 29.45068359 C-19.22741338 27.08003556 -17.98068049 24.94204147 -16.9375 21.8125 C-6.72103017 -0.65042227 -6.72103017 -0.65042227 0 0 Z " fill="#8662FF" transform="translate(363.9375,315.1875)"/>
<path d="M0 0 C0.88022827 0.00404846 1.76045654 0.00809692 2.6673584 0.01226807 C4.0210553 0.00939789 4.0210553 0.00939789 5.40209961 0.00646973 C7.31197386 0.00510748 9.22185736 0.00880669 11.13171387 0.01715088 C14.0617749 0.02784986 16.99122278 0.01725696 19.92126465 0.00445557 C21.77413059 0.00577715 23.62699615 0.00833953 25.4798584 0.01226807 C26.80020081 0.00619537 26.80020081 0.00619537 28.1472168 0 C34.3436918 0.04797647 34.3436918 0.04797647 36.5736084 2.27789307 C36.82084656 4.63764954 36.82084656 4.63764954 36.81652832 7.62969971 C36.82114326 9.30637474 36.82114326 9.30637474 36.82585144 11.016922 C36.81866592 12.22839401 36.81148041 13.43986603 36.80407715 14.68804932 C36.80361893 15.92582626 36.80316071 17.16360321 36.8026886 18.43888855 C36.798887 21.73147354 36.78586664 25.02386666 36.76922607 28.31640625 C36.75577004 31.67140953 36.75895024 35.02637936 36.75915527 38.38140869 C36.75424008 40.92112424 36.74841175 43.46083821 36.74157715 46.00054932 C36.74046432 47.21404556 36.7393515 48.42754181 36.73820496 49.67781067 C36.7318251 50.79244186 36.72544525 51.90707306 36.71887207 53.05548096 C36.71315437 54.5353524 36.71315437 54.5353524 36.70732117 56.04512024 C36.5736084 58.27789307 36.5736084 58.27789307 35.5736084 59.27789307 C34.22816513 59.37574648 32.87768277 59.40587292 31.52868652 59.4072876 C30.67109741 59.41043976 29.8135083 59.41359192 28.92993164 59.4168396 C27.99765747 59.41481537 27.0653833 59.41279114 26.1048584 59.41070557 C24.67889343 59.41214066 24.67889343 59.41214066 23.22412109 59.41360474 C21.20991958 59.41428663 19.19571588 59.41243169 17.18151855 59.40826416 C14.08690485 59.40291605 10.9924363 59.40820884 7.89782715 59.41461182 C5.94600391 59.41395104 3.99418076 59.41266988 2.0423584 59.41070557 C0.64394714 59.41374191 0.64394714 59.41374191 -0.78271484 59.4168396 C-1.64030396 59.41368744 -2.49789307 59.41053528 -3.38146973 59.4072876 C-4.14012329 59.406492 -4.89877686 59.40569641 -5.68041992 59.40487671 C-7.4263916 59.27789307 -7.4263916 59.27789307 -8.4263916 58.27789307 C-8.51308592 56.78917447 -8.53342654 55.29644807 -8.52404785 53.80523682 C-8.5208252 52.90611572 -8.51760254 52.00699463 -8.51428223 51.08062744 C-8.50590332 50.1351001 -8.49752441 49.18957275 -8.4888916 48.21539307 C-8.48437988 47.26599854 -8.47986816 46.316604 -8.47521973 45.33843994 C-8.4633927 42.98486242 -8.44691186 40.63140829 -8.4263916 38.27789307 C-6.4463916 37.78289307 -6.4463916 37.78289307 -4.4263916 37.27789307 C-4.4263916 43.21789307 -4.4263916 49.15789307 -4.4263916 55.27789307 C7.7836084 55.27789307 19.9936084 55.27789307 32.5736084 55.27789307 C32.5736084 38.77789307 32.5736084 22.27789307 32.5736084 5.27789307 C20.3636084 5.27789307 8.1536084 5.27789307 -4.4263916 5.27789307 C-4.4263916 13.52789307 -4.4263916 21.77789307 -4.4263916 30.27789307 C-5.7463916 30.27789307 -7.0663916 30.27789307 -8.4263916 30.27789307 C-8.47578822 26.32692329 -8.51210915 22.37607277 -8.53625488 18.42486572 C-8.55127267 16.41877947 -8.57668141 14.41277982 -8.60217285 12.40679932 C-8.61184082 10.52154541 -8.61184082 10.52154541 -8.6217041 8.59820557 C-8.63217773 7.43563232 -8.64265137 6.27305908 -8.65344238 5.07525635 C-8.19511893 -0.57148572 -4.86597285 0.037675 0 0 Z " fill="#050505" transform="translate(54.4263916015625,148.72210693359375)"/>
<path d="M0 0 C1.65 0 3.3 0 5 0 C5.09341617 16.75039083 5.16396575 33.50069724 5.20724869 50.25128555 C5.22787935 58.02877761 5.25600938 65.80610788 5.30175781 73.58349609 C5.34161039 80.36179675 5.36742915 87.13998025 5.37635398 93.9183948 C5.38157149 97.50801264 5.39384439 101.09729526 5.42292023 104.68680573 C5.45510624 108.69272266 5.45596045 112.69805579 5.45410156 116.70410156 C5.46848267 117.89596573 5.48286377 119.0878299 5.49768066 120.31581116 C5.49218201 121.40673569 5.48668335 122.49766022 5.48101807 123.62164307 C5.48470524 124.56924625 5.48839241 125.51684944 5.49219131 126.49316788 C4.84490904 129.78991035 3.64556428 130.98432914 1 133 C-2.75 133.25 -2.75 133.25 -6 133 C-5.2575 132.195625 -5.2575 132.195625 -4.5 131.375 C-2.62510456 128.40641555 -2.76498575 126.44687573 -3 123 C-2.01 122.505 -2.01 122.505 -1 122 C-0.67 81.74 -0.34 41.48 0 0 Z " fill="#C7E1E4" transform="translate(167,113)"/>
<path d="M0 0 C0.87709122 0.00091141 1.75418243 0.00182281 2.65785217 0.00276184 C3.5579451 -0.00152328 4.45803802 -0.00580841 5.38540649 -0.01022339 C7.29107318 -0.01597221 9.19676182 -0.0164629 11.10243225 -0.01213074 C14.02167652 -0.00897322 16.93990536 -0.03241424 19.85902405 -0.05778503 C21.70863214 -0.06005818 23.55824297 -0.06076145 25.40785217 -0.05973816 C26.28291916 -0.06894791 27.15798615 -0.07815765 28.05957031 -0.08764648 C28.87373917 -0.08141769 29.68790802 -0.0751889 30.52674866 -0.06877136 C31.24241501 -0.06940079 31.95808136 -0.07003021 32.69543457 -0.07067871 C35.16770564 0.41527892 36.06047593 1.3456928 37.59925842 3.30354309 C37.98744202 5.52424622 37.98744202 5.52424622 37.99769592 8.08479309 C38.0034967 9.47117981 38.0034967 9.47117981 38.00941467 10.88557434 C37.99781311 11.84850403 37.98621155 12.81143372 37.97425842 13.80354309 C37.98585999 14.76647278 37.99746155 15.72940247 38.00941467 16.72151184 C38.00554749 17.64576965 38.0016803 18.57002747 37.99769592 19.52229309 C37.99431213 20.36727356 37.99092834 21.21225403 37.98744202 22.08283997 C37.50568909 24.83883029 36.76132263 25.57356759 34.59925842 27.30354309 C32.69543457 27.67776489 32.69543457 27.67776489 30.52674866 27.67585754 C29.7125798 27.68208633 28.89841095 27.68831512 28.05957031 27.69473267 C26.74696983 27.68091805 26.74696983 27.68091805 25.40785217 27.66682434 C24.05627769 27.6675721 24.05627769 27.6675721 22.67739868 27.66833496 C20.77348117 27.66599507 18.86956054 27.65627154 16.9657135 27.63972473 C14.04445387 27.61610531 11.12410505 27.61916765 8.20277405 27.62580872 C6.35446129 27.62023292 4.50615239 27.61312365 2.65785217 27.60432434 C1.78076096 27.60523575 0.90366974 27.60614716 0 27.60708618 C-6.16971213 27.53457254 -6.16971213 27.53457254 -8.40074158 25.30354309 C-8.65953064 22.99690247 -8.65953064 22.99690247 -8.66636658 20.14729309 C-8.6689447 19.12506653 -8.67152283 18.10283997 -8.67417908 17.04963684 C-8.66257751 15.44282043 -8.66257751 15.44282043 -8.65074158 13.80354309 C-8.65847595 12.73233215 -8.66621033 11.66112122 -8.67417908 10.55744934 C-8.67160095 9.53522278 -8.66902283 8.51299622 -8.66636658 7.45979309 C-8.66411072 6.519422 -8.66185486 5.5790509 -8.65953064 4.61018372 C-8.07160097 -0.63015541 -4.41419565 0.05188077 0 0 Z M-4.40074158 5.30354309 C-4.40074158 10.91354309 -4.40074158 16.52354309 -4.40074158 22.30354309 C7.80925842 22.30354309 20.01925842 22.30354309 32.59925842 22.30354309 C32.59925842 16.69354309 32.59925842 11.08354309 32.59925842 5.30354309 C20.38925842 5.30354309 8.17925842 5.30354309 -4.40074158 5.30354309 Z " fill="#0E0F0F" transform="translate(106.40074157714844,148.6964569091797)"/>
<path d="M0 0 C0.83426514 -0.00630432 1.66853027 -0.01260864 2.52807617 -0.019104 C3.43017822 -0.01505554 4.33228027 -0.01100708 5.26171875 -0.00683594 C6.64870972 -0.00970612 6.64870972 -0.00970612 8.0637207 -0.01263428 C10.02067334 -0.0139966 11.97763499 -0.0102969 13.93457031 -0.00195312 C16.93705465 0.00874572 19.93894062 -0.00184685 22.94140625 -0.01464844 C24.83984508 -0.01332685 26.73828353 -0.01076448 28.63671875 -0.00683594 C29.5388208 -0.0108844 30.44092285 -0.01493286 31.37036133 -0.019104 C32.62175903 -0.00964752 32.62175903 -0.00964752 33.8984375 0 C34.63408936 0.00159119 35.36974121 0.00318237 36.12768555 0.00482178 C37.94921875 0.25878906 37.94921875 0.25878906 39.94921875 2.25878906 C40.20800781 4.47363281 40.20800781 4.47363281 40.21484375 7.19628906 C40.21871094 8.66195312 40.21871094 8.66195312 40.22265625 10.15722656 C40.21492188 11.18074219 40.2071875 12.20425781 40.19921875 13.25878906 C40.21082031 14.7940625 40.21082031 14.7940625 40.22265625 16.36035156 C40.22007812 17.33746094 40.2175 18.31457031 40.21484375 19.32128906 C40.21258789 20.21976563 40.21033203 21.11824219 40.20800781 22.04394531 C39.94921875 24.25878906 39.94921875 24.25878906 37.94921875 26.25878906 C36.08299255 26.50602722 36.08299255 26.50602722 33.79077148 26.50170898 C32.9332579 26.50478561 32.07574432 26.50786224 31.19224548 26.5110321 C30.2651326 26.50384659 29.33801971 26.49666107 28.3828125 26.48925781 C27.43358414 26.48879959 26.48435577 26.48834137 25.50636292 26.48786926 C23.49812572 26.48484545 21.48989091 26.4769553 19.48168945 26.46459961 C16.39591226 26.44634345 13.31043492 26.44408988 10.22460938 26.44433594 C8.27734114 26.43942089 6.33007495 26.43359263 4.3828125 26.42675781 C3.45367538 26.42564499 2.52453827 26.42453217 1.56724548 26.42338562 C0.28570335 26.41381584 0.28570335 26.41381584 -1.02172852 26.40405273 C-1.77736588 26.40024094 -2.53300323 26.39642914 -3.3115387 26.39250183 C-5.05078125 26.25878906 -5.05078125 26.25878906 -6.05078125 25.25878906 C-6.30286847 21.45290762 -6.23600469 17.6345345 -6.23828125 13.82128906 C-6.25052734 12.74556641 -6.26277344 11.66984375 -6.27539062 10.56152344 C-6.27732422 9.53478516 -6.27925781 8.50804687 -6.28125 7.45019531 C-6.28535889 6.50345947 -6.28946777 5.55672363 -6.29370117 4.58129883 C-5.85306568 0.36846926 -3.74432174 0.00809882 0 0 Z M-2.05078125 5.25878906 C-2.05078125 10.86878906 -2.05078125 16.47878906 -2.05078125 22.25878906 C10.15921875 22.25878906 22.36921875 22.25878906 34.94921875 22.25878906 C34.94921875 16.64878906 34.94921875 11.03878906 34.94921875 5.25878906 C22.73921875 5.25878906 10.52921875 5.25878906 -2.05078125 5.25878906 Z " fill="#0A0808" transform="translate(104.05078125,181.7412109375)"/>
<path d="M0 0 C3 1 3 1 4 3 C4.68068351 6.48850298 4.38368222 8.412007 2.4375 11.39453125 C0.67743105 13.64784533 -1.12208697 15.84423249 -3 18 C-2.37609375 17.37609375 -1.7521875 16.7521875 -1.109375 16.109375 C0.59375 14.40625 2.296875 12.703125 4 11 C3.125 15.75 3.125 15.75 2 18 C1.34 18 0.68 18 0 18 C-0.0825 18.721875 -0.165 19.44375 -0.25 20.1875 C-1.17699204 23.66372017 -2.46208085 25.46208085 -5 28 C-7.75 28.8125 -7.75 28.8125 -10 29 C-10 29.66 -10 30.32 -10 31 C-9.01 30.67 -8.02 30.34 -7 30 C-8.49367089 34.72995781 -8.49367089 34.72995781 -10.875 36 C-11.57625 36.33 -12.2775 36.66 -13 37 C-15.22816986 39.53442406 -15.22816986 39.53442406 -17 42 C-17.66 41.67 -18.32 41.34 -19 41 C-18.01 39.68 -17.02 38.36 -16 37 C-19.42163615 40.2311042 -22.24637572 43.80907499 -25.0625 47.5625 C-30.26275757 54.47814713 -30.26275757 54.47814713 -33 57 C-30.17831702 44.77270708 -23.78483753 33.45501527 -17.12890625 22.91796875 C-15.84995198 20.89768109 -15.84995198 20.89768109 -15 18 C-14.34 18 -13.68 18 -13 18 C-12.73058594 17.42378906 -12.46117187 16.84757812 -12.18359375 16.25390625 C-10.9793982 13.96076819 -9.62488595 12.00080358 -8.0625 9.9375 C-7.55847656 9.26589844 -7.05445313 8.59429687 -6.53515625 7.90234375 C-5 6 -5 6 -3.43359375 4.44140625 C-1.76418326 2.8558466 -1.76418326 2.8558466 0 0 Z " fill="#F9F7FF" transform="translate(227,317)"/>
<path d="M0 0 C1.32 0.33 2.64 0.66 4 1 C5.32 5.95 6.64 10.9 8 16 C8.31453125 14.92878906 8.6290625 13.85757813 8.953125 12.75390625 C9.38453913 11.35649961 9.816879 9.95937854 10.25 8.5625 C10.45496094 7.85544922 10.65992187 7.14839844 10.87109375 6.41992188 C11.515625 4.37890625 11.515625 4.37890625 13 1 C15.171875 0.02734375 15.171875 0.02734375 17 0 C17.63196384 1.49707939 18.25514393 2.99786703 18.875 4.5 C19.22304687 5.3353125 19.57109375 6.170625 19.9296875 7.03125 C21.21739708 10.60299921 22.07914399 14.31657597 23 18 C24.32 12.39 25.64 6.78 27 1 C28.32 0.67 29.64 0.34 31 0 C32.71280121 6.06703079 31.08029204 11.30497721 29.625 17.25 C29.39039062 18.25546875 29.15578125 19.2609375 28.9140625 20.296875 C27.17426658 27.65146684 27.17426658 27.65146684 26 30 C24.35 29.67 22.7 29.34 21 29 C18.525 21.08 18.525 21.08 16 13 C15.401875 14.505625 14.80375 16.01125 14.1875 17.5625 C12.51898488 21.73675668 10.7923547 25.87758419 9 30 C7.68 30 6.36 30 5 30 C2.117322 20.06436983 -0.39259486 10.40376382 0 0 Z " fill="#0E0F0F" transform="translate(90,107)"/>
<path d="M0 0 C3.26443763 1.37546529 4.83985058 2.75977587 6.796875 5.6953125 C7.28027344 6.41074219 7.76367188 7.12617187 8.26171875 7.86328125 C8.75285156 8.60964844 9.24398437 9.35601562 9.75 10.125 C10.25660156 10.87910156 10.76320313 11.63320312 11.28515625 12.41015625 C12.53166679 14.26816252 13.76948884 16.13137547 15 18 C15.02578125 16.86820313 15.0515625 15.73640625 15.078125 14.5703125 C15.13439626 13.08850257 15.19174382 11.60673323 15.25 10.125 C15.27126953 9.00544922 15.27126953 9.00544922 15.29296875 7.86328125 C15.390625 5.6953125 15.390625 5.6953125 16 2 C18.046875 0.4921875 18.046875 0.4921875 20 0 C21 1 21 1 21.11352539 3.68383789 C21.10828857 4.85164795 21.10305176 6.01945801 21.09765625 7.22265625 C21.09443359 8.48271484 21.09121094 9.74277344 21.08789062 11.04101562 C21.07953403 12.38151109 21.07106907 13.72200588 21.0625 15.0625 C21.0574866 16.40689942 21.05292342 17.7513006 21.04882812 19.09570312 C21.03699488 22.39717941 21.02050971 25.69856803 21 29 C19.68 29.33 18.36 29.66 17 30 C15.18565366 27.54301039 13.37345469 25.08448741 11.5625 22.625 C11.04623047 21.92632812 10.52996094 21.22765625 9.99804688 20.5078125 C9.50498047 19.8375 9.01191406 19.1671875 8.50390625 18.4765625 C8.04830322 17.85861816 7.5927002 17.24067383 7.12329102 16.60400391 C6 15 6 15 5 13 C4.67 18.28 4.34 23.56 4 29 C2.68 29.33 1.36 29.66 0 30 C-1.83034055 28.16965945 -1.13042797 25.26788008 -1.1328125 22.8125 C-1.13410156 21.55695313 -1.13539062 20.30140625 -1.13671875 19.0078125 C-1.13462402 18.35071289 -1.1325293 17.69361328 -1.13037109 17.01660156 C-1.12502234 15.00838665 -1.13031691 13.00039541 -1.13671875 10.9921875 C-1.13542969 9.73664063 -1.13414063 8.48109375 -1.1328125 7.1875 C-1.13112061 5.44533203 -1.13112061 5.44533203 -1.12939453 3.66796875 C-1 1 -1 1 0 0 Z " fill="#0F1010" transform="translate(47,107)"/>
<path d="M0 0 C0.33 0.66 0.66 1.32 1 2 C1.66 2 2.32 2 3 2 C2.67 5.96 2.34 9.92 2 14 C2.33 14 2.66 14 3 14 C3.66 11.36 4.32 8.72 5 6 C5.99 7.485 5.99 7.485 7 9 C6.34 9 5.68 9 5 9 C5.33 10.98 5.66 12.96 6 15 C5.34 15 4.68 15 4 15 C4.09539062 15.58007812 4.19078125 16.16015625 4.2890625 16.7578125 C4.98745381 21.67903497 5.29955671 25.40088659 3 30 C2.01 30.33 1.02 30.66 0 31 C0 31.33 0 31.66 0 32 C0.99 32 1.98 32 3 32 C2.69240822 33.97993541 2.3787932 35.95893599 2.0625 37.9375 C1.88847656 39.03964844 1.71445313 40.14179688 1.53515625 41.27734375 C1 44 1 44 0 45 C0 46.134375 0 47.26875 0 48.4375 C0 52 0 52 -1 54 C-1.99 54 -2.98 54 -4 54 C-4.66 54.99 -5.32 55.98 -6 57 C-7.32 56.67 -8.64 56.34 -10 56 C-9.34230406 47.89854117 -8.08013771 39.94189342 -6.6875 31.9375 C-6.46747314 30.66430908 -6.24744629 29.39111816 -6.02075195 28.0793457 C-4.35627707 18.62611275 -2.40676365 9.29091442 0 0 Z " fill="#8764FF" transform="translate(118,327)"/>
<path d="M0 0 C2.5625 1.375 2.5625 1.375 4 3 C4 3.99 4 4.98 4 6 C0.04 5.67 -3.92 5.34 -8 5 C-8.33 6.32 -8.66 7.64 -9 9 C-8.32453125 9.23074219 -7.6490625 9.46148437 -6.953125 9.69921875 C2.59504863 13.19009726 2.59504863 13.19009726 5 18 C5 21.7648802 4.48426973 23.42200065 2.0625 26.3125 C-1.23111346 29.00727465 -3.61495874 29.33977242 -7.890625 29.28515625 C-11.36084014 28.81603457 -13.44313631 27.30117732 -16 25 C-16 23.68 -16 22.36 -16 21 C-11.25 21.875 -11.25 21.875 -9 23 C-6.6670134 23.04022391 -4.33293334 23.04320247 -2 23 C-1.67 21.68 -1.34 20.36 -1 19 C-1.84304687 18.60167969 -2.68609375 18.20335938 -3.5546875 17.79296875 C-4.65039062 17.26316406 -5.74609375 16.73335937 -6.875 16.1875 C-7.96554688 15.66542969 -9.05609375 15.14335938 -10.1796875 14.60546875 C-13 13 -13 13 -15 10 C-14.92579613 5.91878712 -14.56999683 3.71249603 -12 0.5 C-7.77360265 -1.61319868 -4.49885516 -1.1834675 0 0 Z " fill="#101010" transform="translate(139,108)"/>
<path d="M0 0 C1.79244141 0.01740234 1.79244141 0.01740234 3.62109375 0.03515625 C5.41740234 0.04869141 5.41740234 0.04869141 7.25 0.0625 C8.17683594 0.07410156 9.10367188 0.08570312 10.05859375 0.09765625 C10.62109375 2.03515625 10.62109375 2.03515625 11.05859375 4.09765625 C10.05859375 5.09765625 10.05859375 5.09765625 7.9921875 5.1953125 C7.16847656 5.18371094 6.34476563 5.17210938 5.49609375 5.16015625 C4.66980469 5.15113281 3.84351562 5.14210938 2.9921875 5.1328125 C2.35410156 5.12121094 1.71601562 5.10960938 1.05859375 5.09765625 C1.05859375 7.73765625 1.05859375 10.37765625 1.05859375 13.09765625 C3.69859375 13.09765625 6.33859375 13.09765625 9.05859375 13.09765625 C9.62109375 15.03515625 9.62109375 15.03515625 10.05859375 17.09765625 C9.05859375 18.09765625 9.05859375 18.09765625 7.2109375 18.1953125 C5.16015625 18.16276042 3.109375 18.13020833 1.05859375 18.09765625 C1.05859375 20.40765625 1.05859375 22.71765625 1.05859375 25.09765625 C4.02859375 25.09765625 6.99859375 25.09765625 10.05859375 25.09765625 C10.38859375 26.41765625 10.71859375 27.73765625 11.05859375 29.09765625 C10.05859375 30.09765625 10.05859375 30.09765625 7.15234375 30.23046875 C5.96640625 30.22789062 4.78046875 30.2253125 3.55859375 30.22265625 C2.37265625 30.22523438 1.18671875 30.2278125 -0.03515625 30.23046875 C-2.94140625 30.09765625 -2.94140625 30.09765625 -3.94140625 29.09765625 C-4.04134157 27.03710315 -4.07221531 24.97313035 -4.07421875 22.91015625 C-4.07550781 21.65460938 -4.07679687 20.3990625 -4.078125 19.10546875 C-4.07603027 18.44836914 -4.07393555 17.79126953 -4.07177734 17.11425781 C-4.06642859 15.1060429 -4.07172316 13.09805166 -4.078125 11.08984375 C-4.07683594 9.83429688 -4.07554688 8.57875 -4.07421875 7.28515625 C-4.07252686 5.54298828 -4.07252686 5.54298828 -4.07080078 3.765625 C-3.88903119 0.01774177 -3.78657659 0.12571635 0 0 Z " fill="#101010" transform="translate(75.94140625,106.90234375)"/>
<path d="M0 0 C0.66 0.33 1.32 0.66 2 1 C-5.72738464 14.05777144 -13.8784497 26.57212754 -26 36 C-26.66 35.67 -27.32 35.34 -28 35 C-25.03 32.525 -25.03 32.525 -22 30 C-22.99 30.66 -23.98 31.32 -25 32 C-26.99212671 33.01559401 -28.9911515 34.01789629 -31 35 C-29.61918777 30.8575633 -27.40174442 29.67796901 -24 27 C-25.98 27.99 -25.98 27.99 -28 29 C-26.55255498 24.35789822 -23.8576687 21.32053493 -20.5625 17.875 C-20.07201172 17.35035156 -19.58152344 16.82570313 -19.07617188 16.28515625 C-17.72748751 14.84728763 -16.36428599 13.42307394 -15 12 C-14.47148437 11.4225 -13.94296875 10.845 -13.3984375 10.25 C-11.7348965 8.76303597 -10.10545643 8.01119607 -8.0625 7.125 C-4.37700194 5.37387937 -2.29501609 3.44252413 0 0 Z " fill="#F5F3FF" transform="translate(386,368)"/>
<path d="M0 0 C3.63924742 0.05198925 5.55177883 0.21735384 8.875 1.8125 C10.75 4.3125 10.75 4.3125 11.75 12.3125 C3.83 12.3125 -4.09 12.3125 -12.25 12.3125 C-11.21075082 6.07700491 -10.70059307 5.20676894 -6.25 1.3125 C-4.53310511 -0.40439489 -2.34121863 0.05946946 0 0 Z " fill="#FFFCFB" transform="translate(316.25,162.6875)"/>
<path d="M0 0 C0.77943466 0.00222061 1.55886932 0.00444122 2.36192322 0.00672913 C3.68317955 0.00684242 3.68317955 0.00684242 5.03112793 0.00695801 C5.98841293 0.01211929 6.94569794 0.01728058 7.93199158 0.02259827 C9.39480812 0.02472069 9.39480812 0.02472069 10.88717651 0.02688599 C14.01542675 0.03250319 17.14360656 0.04505859 20.27183533 0.05775452 C22.38706867 0.0627673 24.50230313 0.06733059 26.61753845 0.07142639 C31.81482829 0.0824782 37.01207678 0.09923305 42.20933533 0.12025452 C41.87933533 1.77025452 41.54933533 3.42025452 41.20933533 5.12025452 C27.01933533 5.12025452 12.82933533 5.12025452 -1.79066467 5.12025452 C-2.12066467 3.80025452 -2.45066467 2.48025452 -2.79066467 1.12025452 C-1.79066467 0.12025452 -1.79066467 0.12025452 0 0 Z " fill="#0C0D0D" transform="translate(100.79066467285156,215.87974548339844)"/>
<path d="M0 0 C0.77943466 0.00222061 1.55886932 0.00444122 2.36192322 0.00672913 C3.68317955 0.00684242 3.68317955 0.00684242 5.03112793 0.00695801 C5.98841293 0.01211929 6.94569794 0.01728058 7.93199158 0.02259827 C9.39480812 0.02472069 9.39480812 0.02472069 10.88717651 0.02688599 C14.01542675 0.03250319 17.14360656 0.04505859 20.27183533 0.05775452 C22.38706867 0.0627673 24.50230313 0.06733059 26.61753845 0.07142639 C31.81482829 0.0824782 37.01207678 0.09923305 42.20933533 0.12025452 C41.87933533 1.77025452 41.54933533 3.42025452 41.20933533 5.12025452 C27.01933533 5.12025452 12.82933533 5.12025452 -1.79066467 5.12025452 C-2.12066467 3.80025452 -2.45066467 2.48025452 -2.79066467 1.12025452 C-1.79066467 0.12025452 -1.79066467 0.12025452 0 0 Z " fill="#0C0D0D" transform="translate(48.79066467285156,215.87974548339844)"/>
<path d="M0 0 C0.495 0.99 0.495 0.99 1 2 C0.34 2 -0.32 2 -1 2 C-1 2.66 -1 3.32 -1 4 C-1.66 4 -2.32 4 -3 4 C-3.433125 5.11375 -3.433125 5.11375 -3.875 6.25 C-4.24625 7.1575 -4.6175 8.065 -5 9 C-5.25007813 9.62777344 -5.50015625 10.25554687 -5.7578125 10.90234375 C-10.32773051 18.61946944 -20.69579787 24.01085854 -28 29 C-30.34053426 30.65682981 -32.66994574 32.32843934 -35 34 C-35.66 33.67 -36.32 33.34 -37 33 C-36.67 32.236875 -36.34 31.47375 -36 30.6875 C-34.82563314 28.00930865 -34.82563314 28.00930865 -35 25 C-34.3090625 24.76023437 -33.618125 24.52046875 -32.90625 24.2734375 C-29.47100478 22.76820908 -26.53047896 20.80322313 -23.5 18.625 C-22.59447388 17.97930054 -22.59447388 17.97930054 -21.6706543 17.32055664 C-16.48356723 13.53224978 -11.78059311 9.31970258 -7.17578125 4.84814453 C-4.78107004 2.5381951 -3.20331558 1.06777186 0 0 Z " fill="#C6B5FF" transform="translate(158,350)"/>
<path d="M0 0 C0.66 0 1.32 0 2 0 C4.04258987 3.00380863 4.191154 5.25163027 3.55078125 8.79296875 C0.33962264 21.66037736 0.33962264 21.66037736 -3 25 C-6.80909895 24.67582137 -8.78372163 24.14418558 -12 22 C-11.4100688 17.72103235 -9.88902648 14.69592455 -7.6875 11 C-7.09324219 9.989375 -6.49898438 8.97875 -5.88671875 7.9375 C-4.07222118 5.11244373 -2.23474358 2.50659899 0 0 Z " fill="#8561FF" transform="translate(277,285)"/>
<path d="M0 0 C14.85 0 29.7 0 45 0 C45 1.32 45 2.64 45 4 C30.15 4 15.3 4 0 4 C0 2.68 0 1.36 0 0 Z " fill="#030303" transform="translate(98,228)"/>
<path d="M0 0 C14.85 0 29.7 0 45 0 C45 1.32 45 2.64 45 4 C30.15 4 15.3 4 0 4 C0 2.68 0 1.36 0 0 Z " fill="#020202" transform="translate(46,228)"/>
<path d="M0 0 C1.04220703 -0.020625 2.08441406 -0.04125 3.15820312 -0.0625 C10.71174526 -0.10043367 17.8153176 0.37130771 23.75 5.4375 C24.224375 6.035625 24.69875 6.63375 25.1875 7.25 C22.23475901 7.25 20.69691597 6.81108169 18 5.75 C16.92685547 5.33234375 16.92685547 5.33234375 15.83203125 4.90625 C15.28933594 4.6896875 14.74664062 4.473125 14.1875 4.25 C14.1875 4.58 14.1875 4.91 14.1875 5.25 C12.26550781 5.34087891 12.26550781 5.34087891 10.3046875 5.43359375 C0.2542213 5.91742576 -9.78002244 6.46932708 -19.8125 7.25 C-16.91157498 5.31604999 -15.91575263 4.94868059 -12.625 4.625 C-11.366875 4.50125 -10.10875 4.3775 -8.8125 4.25 C-9.555 4.12625 -10.2975 4.0025 -11.0625 3.875 C-13.61391485 3.29513299 -15.5392573 2.51291261 -17.8125 1.25 C-11.90000168 -0.01623453 -6.01744683 0.02944316 0 0 Z " fill="#C7B6FF" transform="translate(159.8125,268.75)"/>
<path d="M0 0 C0.33 0.66 0.66 1.32 1 2 C1.66 2 2.32 2 3 2 C3.69921875 3.67578125 3.69921875 3.67578125 4 6 C2.70703125 8.54296875 2.70703125 8.54296875 0.8125 11.1875 C0.20019531 12.06792969 -0.41210938 12.94835937 -1.04296875 13.85546875 C-3 16 -3 16 -4.953125 16.45703125 C-8.26431039 17.33538005 -9.53532826 19.8382652 -11.5625 22.5 C-15.68530259 27.89510086 -15.68530259 27.89510086 -19 29 C-17.68978067 24.16500585 -15.78801894 21.18989824 -12.5 17.4375 C-9.50222625 14.00660634 -7.61352636 11.23378284 -6 7 C-4.4921875 4.98046875 -4.4921875 4.98046875 -2.875 3.1875 C-2.33617187 2.58292969 -1.79734375 1.97835938 -1.2421875 1.35546875 C-0.83226562 0.90816406 -0.42234375 0.46085937 0 0 Z " fill="#E9E3FF" transform="translate(389,326)"/>
<path d="M0 0 C0.66 0.66 1.32 1.32 2 2 C1.9765625 4.49609375 1.9765625 4.49609375 1.625 7.4375 C1.29336357 10.33353438 1 13.08277187 1 16 C1.99 16 2.98 16 4 16 C3.69240822 17.97993541 3.3787932 19.95893599 3.0625 21.9375 C2.88847656 23.03964844 2.71445313 24.14179688 2.53515625 25.27734375 C2 28 2 28 1 29 C1 30.134375 1 31.26875 1 32.4375 C1 36 1 36 0 38 C-0.99 38 -1.98 38 -3 38 C-3.66 38.99 -4.32 39.98 -5 41 C-5.66 40.67 -6.32 40.34 -7 40 C-3.44697884 19.36879044 -3.44697884 19.36879044 -1.43359375 11.8984375 C-0.34135458 7.81972618 0.2111691 4.22338191 0 0 Z " fill="#C3B1FF" transform="translate(117,343)"/>
<path d="M0 0 C0.33 0.66 0.66 1.32 1 2 C1.66 2 2.32 2 3 2 C2.67 5.96 2.34 9.92 2 14 C2.33 14 2.66 14 3 14 C3.66 11.36 4.32 8.72 5 6 C5.99 7.485 5.99 7.485 7 9 C6.34 9 5.68 9 5 9 C5.33 10.98 5.66 12.96 6 15 C5.34 15 4.68 15 4 15 C4.09539062 15.58007812 4.19078125 16.16015625 4.2890625 16.7578125 C4.98323931 21.64933746 5.38123592 25.46431253 3 30 C1.68 30.33 0.36 30.66 -1 31 C-0.67 26.05 -0.34 21.1 0 16 C-0.99 16.33 -1.98 16.66 -3 17 C-2.25339288 11.27601207 -1.17122859 5.65146223 0 0 Z " fill="#A286FF" transform="translate(118,327)"/>
<path d="M0 0 C1 3 1 3 0.0625 5.1875 C-0.288125 5.785625 -0.63875 6.38375 -1 7 C-1.66 7 -2.32 7 -3 7 C-3.0825 7.721875 -3.165 8.44375 -3.25 9.1875 C-4.17699204 12.66372017 -5.46208085 14.46208085 -8 17 C-10.75 17.8125 -10.75 17.8125 -13 18 C-13 18.66 -13 19.32 -13 20 C-12.01 19.67 -11.02 19.34 -10 19 C-11.49367089 23.72995781 -11.49367089 23.72995781 -13.875 25 C-14.57625 25.33 -15.2775 25.66 -16 26 C-18.22816986 28.53442406 -18.22816986 28.53442406 -20 31 C-20.66 30.67 -21.32 30.34 -22 30 C-21.54625 29.443125 -21.0925 28.88625 -20.625 28.3125 C-18.93051173 26.11264687 -18.93051173 26.11264687 -18.16796875 23.73046875 C-16.75112582 20.41818377 -14.86431202 17.86826996 -12.6875 15 C-11.92824219 13.989375 -11.16898438 12.97875 -10.38671875 11.9375 C-8.07546294 9.09287747 -5.61786049 6.56056725 -3 4 C-1.97186389 2.68824014 -0.95915568 1.3630107 0 0 Z " fill="#B39CFF" transform="translate(230,328)"/>
<path d="M0 0 C0.33 0.99 0.66 1.98 1 3 C-2.63 3.66 -6.26 4.32 -10 5 C-10 5.66 -10 6.32 -10 7 C-13.3 7.66 -16.6 8.32 -20 9 C-18 7 -18 7 -15 6 C-15.99 5.01 -16.98 4.02 -18 3 C-12.09965659 0.63986264 -6.15229943 -0.05076648 0 2 C0 1.34 0 0.68 0 0 Z " fill="#A78EFF" transform="translate(150,270)"/>
<path d="M0 0 C0.66 0.33 1.32 0.66 2 1 C-1.69000841 5.85827363 -5.51931137 9.07425208 -10.625 12.375 C-11.29273438 12.82488281 -11.96046875 13.27476562 -12.6484375 13.73828125 C-17.60545688 17 -17.60545688 17 -21 17 C-17.24012746 12.86414021 -13.0574364 9.86275925 -8.44921875 6.71484375 C-5.47359371 4.63143164 -2.74099851 2.38034081 0 0 Z " fill="#B6A0FF" transform="translate(142,366)"/>
<path d="M0 0 C0.33 0.66 0.66 1.32 1 2 C-1.16597756 6.59766983 -4.59237132 9.82746949 -8.1875 13.3125 C-9.02571289 14.13717773 -9.02571289 14.13717773 -9.88085938 14.97851562 C-11.24937412 16.32363696 -12.62406833 17.66246643 -14 19 C-14 15.26534283 -13.97463623 13.01790279 -11.328125 10.25390625 C-10.64234375 9.69574219 -9.9565625 9.13757813 -9.25 8.5625 C-5.98743727 5.83978578 -2.95687786 3.04928029 0 0 Z " fill="#F4F1FF" transform="translate(341,348)"/>
<path d="M0 0 C-0.33 0.99 -0.66 1.98 -1 3 C-4.31544299 4.10514766 -7.20410111 4.32107631 -10.6875 4.5625 C-11.86699219 4.64628906 -13.04648438 4.73007812 -14.26171875 4.81640625 C-15.16535156 4.87699219 -16.06898437 4.93757813 -17 5 C-17.33 3.68 -17.66 2.36 -18 1 C-16.12528812 0.83012319 -14.25021305 0.66425224 -12.375 0.5 C-11.33085938 0.4071875 -10.28671875 0.314375 -9.2109375 0.21875 C-6.12853212 0.00875645 -3.08834771 -0.03709727 0 0 Z " fill="#B9A4FF" transform="translate(105,387)"/>
<path d="M0 0 C0.66 0.99 1.32 1.98 2 3 C0.68 5.64 -0.64 8.28 -2 11 C-2.66 10.67 -3.32 10.34 -4 10 C-8.0062053 13.06356876 -11.48290436 16.40111144 -15 20 C-15.66 19.67 -16.32 19.34 -17 19 C-16.52054932 18.53102295 -16.04109863 18.0620459 -15.54711914 17.57885742 C-13.38036553 15.45364574 -11.22138371 13.32070455 -9.0625 11.1875 C-8.30775391 10.44951172 -7.55300781 9.71152344 -6.77539062 8.95117188 C-6.05673828 8.23896484 -5.33808594 7.52675781 -4.59765625 6.79296875 C-3.60004272 5.81106567 -3.60004272 5.81106567 -2.58227539 4.80932617 C-0.77972797 2.98330243 -0.77972797 2.98330243 0 0 Z " fill="#BDA9FF" transform="translate(345,340)"/>
<path d="M0 0 C2 2 2 2 2.08203125 4.00390625 C1.16082731 12.74866826 -0.38957856 21.36044345 -2 30 C-2.99 30.33 -3.98 30.66 -5 31 C-4.86722656 30.3709375 -4.73445313 29.741875 -4.59765625 29.09375 C-3.75461225 25.00775572 -2.9484277 20.96249452 -2.5 16.8125 C-2 13 -2 13 -0.9375 9.375 C-0.01936491 6.06971368 0.16623782 3.40787526 0 0 Z " fill="#E3DAFF" transform="translate(117,343)"/>
<path d="M0 0 C0.33 0.66 0.66 1.32 1 2 C0.34 2 -0.32 2 -1 2 C-1 2.66 -1 3.32 -1 4 C-1.66 4 -2.32 4 -3 4 C-3.28875 4.7425 -3.5775 5.485 -3.875 6.25 C-4.82302644 8.56739797 -5.84845911 10.77917115 -7 13 C-8.32 12.67 -9.64 12.34 -11 12 C-10.42239677 8.46413157 -9.1727933 6.79041711 -6.625 4.3125 C-6.01914063 3.71050781 -5.41328125 3.10851562 -4.7890625 2.48828125 C-3 1 -3 1 0 0 Z " fill="#B59FFF" transform="translate(158,350)"/>
<path d="M0 0 C0.99 0.33 1.98 0.66 3 1 C2.4225 1.515625 1.845 2.03125 1.25 2.5625 C-0.67077917 4.6433441 -1.75724016 6.23824795 -3.0625 8.6875 C-5 12 -5 12 -8 13 C-8.99 13 -9.98 13 -11 13 C-9.46356148 9.31930113 -7.21849055 7.01224796 -4.375 4.25 C-3.55773437 3.45078125 -2.74046875 2.6515625 -1.8984375 1.828125 C-0.95871094 0.92320312 -0.95871094 0.92320312 0 0 Z " fill="#E6DEFF" transform="translate(374,377)"/>
<path d="M0 0 C0.66 0.33 1.32 0.66 2 1 C1.67 1.66 1.34 2.32 1 3 C1.99 2.67 2.98 2.34 4 2 C2.50632911 6.72995781 2.50632911 6.72995781 0.125 8 C-0.57625 8.33 -1.2775 8.66 -2 9 C-4.22816986 11.53442406 -4.22816986 11.53442406 -6 14 C-6.66 13.67 -7.32 13.34 -8 13 C-7.319375 12.1646875 -7.319375 12.1646875 -6.625 11.3125 C-4.91693227 9.07019266 -4.91693227 9.07019266 -4 6.5 C-2.97989586 3.94973965 -1.72710309 2.11962652 0 0 Z " fill="#997AFF" transform="translate(216,345)"/>
<path d="M0 0 C0 0.99 0 1.98 0 3 C-1.90625 4.578125 -1.90625 4.578125 -4.5 6.25 C-9.35719558 9.49504947 -13.70344411 13.05148914 -18 17 C-18 13.25123794 -17.21302166 12.78063632 -14.625 10.1875 C-10.22410183 5.92067937 -5.37013631 2.90515571 0 0 Z " fill="#EEE9FF" transform="translate(380,368)"/>
<path d="M0 0 C0.33 0.99 0.66 1.98 1 3 C0.34 3 -0.32 3 -1 3 C-1.25007813 3.57492187 -1.50015625 4.14984375 -1.7578125 4.7421875 C-3.17069746 7.31026142 -4.79676187 9.06244669 -6.875 11.125 C-7.55304688 11.80820312 -8.23109375 12.49140625 -8.9296875 13.1953125 C-10.88735669 14.90180904 -12.6307409 15.96942541 -15 17 C-13.67879172 14.06769807 -12.25361803 12.01335101 -9.9609375 9.765625 C-9.38085938 9.19199219 -8.80078125 8.61835938 -8.203125 8.02734375 C-7.59984375 7.44082031 -6.9965625 6.85429687 -6.375 6.25 C-5.76398438 5.64800781 -5.15296875 5.04601562 -4.5234375 4.42578125 C-3.02011376 2.94594695 -1.51065144 1.47235324 0 0 Z " fill="#ECE6FF" transform="translate(341,354)"/>
<path d="M0 0 C0.66 0.66 1.32 1.32 2 2 C1.59992578 7.1373167 0.17669914 12.3356447 -2 17 C-3.1171875 15.421875 -3.1171875 15.421875 -4 13 C-3.3203125 9.765625 -3.3203125 9.765625 -2.125 6.25 C-1.73570312 5.07953125 -1.34640625 3.9090625 -0.9453125 2.703125 C-0.63335937 1.81109375 -0.32140625 0.9190625 0 0 Z " fill="#B099FF" transform="translate(297,323)"/>
<path d="M0 0 C0.61694336 1.78417969 0.61694336 1.78417969 1 4 C-0.39100376 6.56711342 -1.78932492 8.86148118 -3.4375 11.25 C-3.87126953 11.8996875 -4.30503906 12.549375 -4.75195312 13.21875 C-5.82341928 14.82006205 -6.91026283 16.41106548 -8 18 C-8.33 17.01 -8.66 16.02 -9 15 C-8.67 14.34 -8.34 13.68 -8 13 C-8.66 13 -9.32 13 -10 13 C-10 12.34 -10 11.68 -10 11 C-9.0925 10.67 -8.185 10.34 -7.25 10 C-3.01932133 7.39650543 -1.81453912 4.49365277 0 0 Z " fill="#8D6BFF" transform="translate(227,335)"/>
<path d="M0 0 C0.33 0.66 0.66 1.32 1 2 C1.66 2 2.32 2 3 2 C2.34 6.29 1.68 10.58 1 15 C0.01 15 -0.98 15 -2 15 C-1.03644647 4.44191344 -1.03644647 4.44191344 0 0 Z " fill="#997AFF" transform="translate(110,368)"/>
<path d="M0 0 C0.66 0.99 1.32 1.98 2 3 C-0.31 6.3 -2.62 9.6 -5 13 C-5.99 12.34 -6.98 11.68 -8 11 C-5.36 7.37 -2.72 3.74 0 0 Z " fill="#BCA9FF" transform="translate(391,329)"/>
<path d="M0 0 C0.66 0.33 1.32 0.66 2 1 C1.16855469 1.81404297 1.16855469 1.81404297 0.3203125 2.64453125 C-0.76636719 3.71767578 -0.76636719 3.71767578 -1.875 4.8125 C-2.59429687 5.52019531 -3.31359375 6.22789062 -4.0546875 6.95703125 C-6.15358937 9.04399194 -6.15358937 9.04399194 -8 12 C-8.66 12 -9.32 12 -10 12 C-10.99 12.495 -10.99 12.495 -12 13 C-10.44997253 9.11602311 -7.99523379 6.97020381 -4.875 4.25 C-3.96492188 3.45078125 -3.05484375 2.6515625 -2.1171875 1.828125 C-1.06917969 0.92320312 -1.06917969 0.92320312 0 0 Z " fill="#906FFF" transform="translate(368,374)"/>
<path d="M0 0 C-1.39493652 4.43843439 -3.51898201 6.9434964 -7 10 C-7.99 10.33 -8.98 10.66 -10 11 C-8.64763423 8.06120516 -7.10057341 5.70767089 -5 3.25 C-4.484375 2.63640625 -3.96875 2.0228125 -3.4375 1.390625 C-2 0 -2 0 0 0 Z " fill="#8D6BFF" transform="translate(385,341)"/>
<path d="M0 0 C0.99 0 1.98 0 3 0 C2.34 3.96 1.68 7.92 1 12 C0.34 12 -0.32 12 -1 12 C-1.08159574 7.83861737 -0.98248524 4.0527516 0 0 Z " fill="#E3DBFF" transform="translate(118,359)"/>
<path d="M0 0 C1 3 1 3 0.0625 5.1875 C-0.4634375 6.0846875 -0.4634375 6.0846875 -1 7 C-1.66 7 -2.32 7 -3 7 C-3.12375 7.804375 -3.2475 8.60875 -3.375 9.4375 C-3.58125 10.283125 -3.7875 11.12875 -4 12 C-4.99 12.495 -4.99 12.495 -6 13 C-6.71484375 11.296875 -6.71484375 11.296875 -7 9 C-5.56640625 6.640625 -5.56640625 6.640625 -3.5625 4.25 C-2.57443359 3.05117188 -2.57443359 3.05117188 -1.56640625 1.828125 C-1.04949219 1.22484375 -0.53257812 0.6215625 0 0 Z " fill="#EAE4FF" transform="translate(230,328)"/>
<path d="M0 0 C0.66 0.33 1.32 0.66 2 1 C1.52797514 5.24822374 -0.96655518 7.19989709 -4 10 C-4.66 9.67 -5.32 9.34 -6 9 C-5.34 8.34 -4.68 7.68 -4 7 C-4 6.01 -4 5.02 -4 4 C-2 1.8125 -2 1.8125 0 0 Z " fill="#D1C4FF" transform="translate(147,360)"/>
<path d="M0 0 C0.33 0.99 0.66 1.98 1 3 C-7.42857143 5.28571429 -7.42857143 5.28571429 -12 5 C-11.34 4.67 -10.68 4.34 -10 4 C-9.67 3.34 -9.34 2.68 -9 2 C-5.65506316 1.00555932 -3.31044803 0.89651732 0 2 C0 1.34 0 0.68 0 0 Z " fill="#815BFF" transform="translate(150,270)"/>
<path d="M0 0 C0 0.66 0 1.32 0 2 C1.32 2.33 2.64 2.66 4 3 C-1.60239722 3.13028831 -6.05614216 2.74658769 -11 0 C-6.98195309 -0.84098656 -3.98196457 -1.05404945 0 0 Z " fill="#AF98FF" transform="translate(153,270)"/>
<path d="M0 0 C0.33 0.66 0.66 1.32 1 2 C-0.98 4.64 -2.96 7.28 -5 10 C-5.33 9.34 -5.66 8.68 -6 8 C-5.67 7.34 -5.34 6.68 -5 6 C-5.66 5.67 -6.32 5.34 -7 5 C-6.01 4.01 -5.02 3.02 -4 2 C-4 2.66 -4 3.32 -4 4 C-2.68 2.68 -1.36 1.36 0 0 Z " fill="#C7B6FF" transform="translate(177,336)"/>
<path d="M0 0 C1.2077558 3.62326739 0.54311128 4.64146369 -1 8 C-1.66 7.34 -2.32 6.68 -3 6 C-4.98 6.99 -4.98 6.99 -7 8 C-5.50902342 4.2047869 -3.24299151 2.38957269 0 0 Z " fill="#DBD0FF" transform="translate(397,318)"/>
<path d="M0 0 C0.66 0.33 1.32 0.66 2 1 C-2.30769231 6.78461538 -2.30769231 6.78461538 -5.8125 7.875 C-6.8953125 7.936875 -6.8953125 7.936875 -8 8 C-5.33333333 5.33333333 -2.66666667 2.66666667 0 0 Z " fill="#A990FF" transform="translate(142,366)"/>
<path d="M0 0 C0.66 0 1.32 0 2 0 C1.49477778 4.37859255 -1.17827222 6.81651224 -4 10 C-4.33 9.34 -4.66 8.68 -5 8 C-4.07421875 6.0546875 -4.07421875 6.0546875 -2.6875 3.875 C-2.23761719 3.15054687 -1.78773438 2.42609375 -1.32421875 1.6796875 C-0.88722656 1.12539063 -0.45023437 0.57109375 0 0 Z " fill="#BBA7FF" transform="translate(290,342)"/>
<path d="M0 0 C0.66 0.99 1.32 1.98 2 3 C-0.64 5.31 -3.28 7.62 -6 10 C-6.66 9.67 -7.32 9.34 -8 9 C-6.576875 7.88625 -6.576875 7.88625 -5.125 6.75 C-2.67467599 4.72154781 -1.12674637 3.0422152 0 0 Z " fill="#DFD6FF" transform="translate(366,394)"/>
<path d="M0 0 C0 0.99 0 1.98 0 3 C-0.99 3.33 -1.98 3.66 -3 4 C-3 4.66 -3 5.32 -3 6 C-4.32 6.33 -5.64 6.66 -7 7 C-6.3125 4.625 -6.3125 4.625 -5 2 C-2.375 0.6875 -2.375 0.6875 0 0 Z " fill="#B19AFF" transform="translate(116,383)"/>
<path d="M0 0 C0.99 0.33 1.98 0.66 3 1 C0.69 3.31 -1.62 5.62 -4 8 C-4.33 7.01 -4.66 6.02 -5 5 C-3.35 3.35 -1.7 1.7 0 0 Z " fill="#FEFEFF" transform="translate(335,355)"/>
<path d="M0 0 C0.33 0 0.66 0 1 0 C1.16242661 7.14677104 1.16242661 7.14677104 0 10 C-0.99 10.33 -1.98 10.66 -3 11 C-2.44894091 7.0507432 -1.61064629 3.65079826 0 0 Z " fill="#CABBFF" transform="translate(122,345)"/>
<path d="M0 0 C0.66 0 1.32 0 2 0 C1.67 2.31 1.34 4.62 1 7 C0.01 7 -0.98 7 -2 7 C-1.34 4.69 -0.68 2.38 0 0 Z " fill="#F3EFFF" transform="translate(112,376)"/>
<path d="M0 0 C0.99 0.99 1.98 1.98 3 3 C2.21625 3.309375 1.4325 3.61875 0.625 3.9375 C-1.92330128 4.92875038 -1.92330128 4.92875038 -4 6 C-4 4.68 -4 3.36 -4 2 C-2.68 1.34 -1.36 0.68 0 0 Z " fill="#A98FFF" transform="translate(121,278)"/>
<path d="M0 0 C0.66 0.33 1.32 0.66 2 1 C-0.97 4.96 -0.97 4.96 -4 9 C-4.66 8.67 -5.32 8.34 -6 8 C-5.505 7.38125 -5.01 6.7625 -4.5 6.125 C-2.80777227 4.16119096 -2.80777227 4.16119096 -3 2 C-2.01 2 -1.02 2 0 2 C0 1.34 0 0.68 0 0 Z " fill="#C4B2FF" transform="translate(214,350)"/>
<path d="M0 0 C4.31392226 0.4793247 6.16569547 1.7457985 9 5 C5.89448334 5 4.64738916 4.4606285 2 3 C2 2.34 2 1.68 2 1 C1.34 0.67 0.68 0.34 0 0 Z " fill="#B6A1FF" transform="translate(176,271)"/>
<path d="M0 0 C0.99 0.33 1.98 0.66 3 1 C-0.96 4.465 -0.96 4.465 -5 8 C-5 5 -5 5 -2.5 2.3125 C-1.675 1.549375 -0.85 0.78625 0 0 Z " fill="#DCD2FF" transform="translate(367,377)"/>
</svg>
